<?xml version="1.0" encoding="utf-8" ?>
<svg baseProfile="full" height="800px" version="1.1" viewBox="0 0 800 800" width="800px" xmlns="http://www.w3.org/2000/svg" xmlns:ev="http://www.w3.org/2001/xml-events" xmlns:xlink="http://www.w3.org/1999/xlink"><defs /><circle cx="400" cy="400" fill="#FEFEFE" r="336.0" stroke="#2C3E50" stroke-width="2" /><circle cx="400" cy="400" fill="none" r="160.0" stroke="#BDC3C7" stroke-width="1" /><circle cx="400" cy="400" fill="none" r="264.0" stroke="#B5B5B5" stroke-width="0.5" /><line stroke="#6A6A6A" stroke-width="0.6" x1="76.0" x2="64.0" y1="399.99999999999994" y2="399.99999999999994" /><line stroke="#6A6A6A" stroke-width="0.3" x1="73.24813902590745" x2="65.27858144117351" y1="428.5870836212318" y2="429.2843295632131" /><line stroke="#6A6A6A" stroke-width="0.44999999999999996" x1="78.55874941681532" x2="69.10459498789811" y1="456.6787651904861" y2="458.3457876960886" /><line stroke="#6A6A6A" stroke-width="0.3" x1="83.17632897718562" x2="75.44892236687303" y1="484.8926467936268" y2="486.963199154447" /><line stroke="#6A6A6A" stroke-width="0.44999999999999996" x1="93.28432857547949" x2="84.26327941593479" y1="511.63537478149823" y2="514.9187681574247" /><line stroke="#6A6A6A" stroke-width="0.3" x1="102.73104585197876" x2="95.4805835556856" y1="538.6187898509494" y2="541.9997359448749" /><line stroke="#6A6A6A" stroke-width="0.6" x1="119.40776917384187" x2="109.0154643284286" y1="562.0" y2="568.0" /><line stroke="#6A6A6A" stroke-width="0.3" x1="131.31812947321072" x2="124.76491311889873" y1="588.1330711231432" y2="592.7216826139515" /><line stroke="#6A6A6A" stroke-width="0.44999999999999996" x1="149.9630937659656" x2="142.6090671120234" y1="609.8058758016864" y2="615.9766368546772" /><line stroke="#6A6A6A" stroke-width="0.3" x1="168.06897577081236" x2="162.41212152132" y1="631.9310242291875" y2="637.58787847868" /><line stroke="#6A6A6A" stroke-width="0.44999999999999996" x1="190.19412419831352" x2="184.02336314532275" y1="650.0369062340344" y2="657.3909328879765" /><line stroke="#6A6A6A" stroke-width="0.3" x1="211.86692887685678" x2="207.27831738604843" y1="668.6818705267892" y2="675.2350868811011" /><line stroke="#6A6A6A" stroke-width="0.6" x1="237.99999999999986" x2="231.99999999999986" y1="680.592230826158" y2="690.9845356715713" /><line stroke="#6A6A6A" stroke-width="0.3" x1="261.3812101490507" x2="258.00026405512506" y1="697.2689541480213" y2="704.5194164443144" /><line stroke="#6A6A6A" stroke-width="0.44999999999999996" x1="288.3646252185018" x2="285.08123184257533" y1="706.7156714245205" y2="715.7367205840652" /><line stroke="#6A6A6A" stroke-width="0.3" x1="315.1073532063732" x2="313.0368008455531" y1="716.8236710228143" y2="724.551077633127" /><line stroke="#6A6A6A" stroke-width="0.44999999999999996" x1="343.32123480951395" x2="341.65421230391144" y1="721.4412505831847" y2="730.895405012102" /><line stroke="#6A6A6A" stroke-width="0.3" x1="371.4129163787681" x2="370.7156704367868" y1="726.7518609740926" y2="734.7214185588265" /><line stroke="#6A6A6A" stroke-width="0.6" x1="399.99999999999994" x2="399.99999999999994" y1="724.0" y2="736.0" /><line stroke="#6A6A6A" stroke-width="0.3" x1="428.5870836212318" x2="429.2843295632131" y1="726.7518609740926" y2="734.7214185588265" /><line stroke="#6A6A6A" stroke-width="0.44999999999999996" x1="456.67876519048593" x2="458.34578769608845" y1="721.4412505831847" y2="730.895405012102" /><line stroke="#6A6A6A" stroke-width="0.3" x1="484.8926467936267" x2="486.9631991544468" y1="716.8236710228144" y2="724.551077633127" /><line stroke="#6A6A6A" stroke-width="0.44999999999999996" x1="511.63537478149834" x2="514.9187681574248" y1="706.7156714245205" y2="715.7367205840652" /><line stroke="#6A6A6A" stroke-width="0.3" x1="538.6187898509495" x2="541.999735944875" y1="697.2689541480211" y2="704.5194164443144" /><line stroke="#6A6A6A" stroke-width="0.6" x1="562.0" x2="568.0" y1="680.5922308261581" y2="690.9845356715714" /><line stroke="#6A6A6A" stroke-width="0.3" x1="588.133071123143" x2="592.7216826139515" y1="668.6818705267892" y2="675.2350868811013" /><line stroke="#6A6A6A" stroke-width="0.44999999999999996" x1="609.8058758016864" x2="615.9766368546772" y1="650.0369062340344" y2="657.3909328879766" /><line stroke="#6A6A6A" stroke-width="0.3" x1="631.9310242291875" x2="637.5878784786798" y1="631.9310242291876" y2="637.5878784786801" /><line stroke="#6A6A6A" stroke-width="0.44999999999999996" x1="650.0369062340344" x2="657.3909328879765" y1="609.8058758016865" y2="615.9766368546773" /><line stroke="#6A6A6A" stroke-width="0.3" x1="668.6818705267892" x2="675.2350868811011" y1="588.1330711231433" y2="592.7216826139517" /><line stroke="#6A6A6A" stroke-width="0.6" x1="680.592230826158" x2="690.9845356715713" y1="562.0000000000001" y2="568.0000000000001" /><line stroke="#6A6A6A" stroke-width="0.3" x1="697.2689541480213" x2="704.5194164443144" y1="538.6187898509494" y2="541.9997359448749" /><line stroke="#6A6A6A" stroke-width="0.44999999999999996" x1="706.7156714245205" x2="715.7367205840652" y1="511.63537478149823" y2="514.9187681574247" /><line stroke="#6A6A6A" stroke-width="0.3" x1="716.8236710228143" x2="724.551077633127" y1="484.8926467936268" y2="486.96319915444695" /><line stroke="#6A6A6A" stroke-width="0.44999999999999996" x1="721.4412505831847" x2="730.895405012102" y1="456.67876519048605" y2="458.3457876960886" /><line stroke="#6A6A6A" stroke-width="0.3" x1="726.7518609740926" x2="734.7214185588265" y1="428.58708362123195" y2="429.2843295632132" /><line stroke="#6A6A6A" stroke-width="0.6" x1="724.0" x2="736.0" y1="400.0" y2="400.0" /><line stroke="#6A6A6A" stroke-width="0.3" x1="726.7518609740926" x2="734.7214185588265" y1="371.4129163787681" y2="370.71567043678687" /><line stroke="#6A6A6A" stroke-width="0.44999999999999996" x1="721.4412505831847" x2="730.895405012102" y1="343.32123480951395" y2="341.65421230391144" /><line stroke="#6A6A6A" stroke-width="0.3" x1="716.8236710228143" x2="724.551077633127" y1="315.1073532063732" y2="313.03680084555305" /><line stroke="#6A6A6A" stroke-width="0.44999999999999996" x1="706.7156714245205" x2="715.7367205840652" y1="288.3646252185017" y2="285.08123184257533" /><line stroke="#6A6A6A" stroke-width="0.3" x1="697.2689541480212" x2="704.5194164443144" y1="261.3812101490506" y2="258.000264055125" /><line stroke="#6A6A6A" stroke-width="0.6" x1="680.5922308261581" x2="690.9845356715714" y1="238.00000000000003" y2="232.00000000000003" /><line stroke="#6A6A6A" stroke-width="0.3" x1="668.6818705267892" x2="675.2350868811013" y1="211.8669288768569" y2="207.2783173860485" /><line stroke="#6A6A6A" stroke-width="0.44999999999999996" x1="650.0369062340344" x2="657.3909328879765" y1="190.1941241983136" y2="184.0233631453228" /><line stroke="#6A6A6A" stroke-width="0.3" x1="631.9310242291876" x2="637.58787847868" y1="168.06897577081244" y2="162.41212152132005" /><line stroke="#6A6A6A" stroke-width="0.44999999999999996" x1="609.8058758016864" x2="615.9766368546773" y1="149.9630937659656" y2="142.6090671120234" /><line stroke="#6A6A6A" stroke-width="0.3" x1="588.133071123143" x2="592.7216826139515" y1="131.31812947321072" y2="124.76491311889873" /><line stroke="#6A6A6A" stroke-width="0.6" x1="562.0" x2="568.0" y1="119.40776917384187" y2="109.0154643284286" /><line stroke="#6A6A6A" stroke-width="0.3" x1="538.6187898509494" x2="541.999735944875" y1="102.73104585197882" y2="95.4805835556856" /><line stroke="#6A6A6A" stroke-width="0.44999999999999996" x1="511.6353747814983" x2="514.9187681574247" y1="93.28432857547955" y2="84.26327941593479" /><line stroke="#6A6A6A" stroke-width="0.3" x1="484.8926467936268" x2="486.96319915444695" y1="83.17632897718562" y2="75.44892236687303" /><line stroke="#6A6A6A" stroke-width="0.44999999999999996" x1="456.6787651904861" x2="458.3457876960886" y1="78.55874941681532" y2="69.10459498789811" /><line stroke="#6A6A6A" stroke-width="0.3" x1="428.58708362123184" x2="429.28432956321313" y1="73.24813902590745" y2="65.27858144117351" /><line stroke="#6A6A6A" stroke-width="0.6" x1="400.0" x2="400.0" y1="76.0" y2="64.0" /><line stroke="#6A6A6A" stroke-width="0.3" x1="371.4129163787681" x2="370.7156704367868" y1="73.24813902590745" y2="65.27858144117351" /><line stroke="#6A6A6A" stroke-width="0.44999999999999996" x1="343.32123480951395" x2="341.65421230391144" y1="78.55874941681532" y2="69.10459498789811" /><line stroke="#6A6A6A" stroke-width="0.3" x1="315.10735320637315" x2="313.036800845553" y1="83.17632897718562" y2="75.44892236687303" /><line stroke="#6A6A6A" stroke-width="0.44999999999999996" x1="288.3646252185017" x2="285.08123184257533" y1="93.28432857547949" y2="84.26327941593479" /><line stroke="#6A6A6A" stroke-width="0.3" x1="261.3812101490506" x2="258.00026405512506" y1="102.73104585197876" y2="95.4805835556856" /><line stroke="#6A6A6A" stroke-width="0.6" x1="238.00000000000006" x2="232.00000000000006" y1="119.40776917384187" y2="109.0154643284286" /><line stroke="#6A6A6A" stroke-width="0.3" x1="211.86692887685686" x2="207.27831738604849" y1="131.31812947321072" y2="124.76491311889879" /><line stroke="#6A6A6A" stroke-width="0.44999999999999996" x1="190.19412419831357" x2="184.02336314532278" y1="149.9630937659656" y2="142.6090671120234" /><line stroke="#6A6A6A" stroke-width="0.3" x1="168.06897577081244" x2="162.41212152132005" y1="168.0689757708124" y2="162.41212152132002" /><line stroke="#6A6A6A" stroke-width="0.44999999999999996" x1="149.96309376596562" x2="142.6090671120234" y1="190.19412419831352" y2="184.02336314532275" /><line stroke="#6A6A6A" stroke-width="0.3" x1="131.31812947321066" x2="124.76491311889873" y1="211.86692887685695" y2="207.27831738604857" /><line stroke="#6A6A6A" stroke-width="0.6" x1="119.40776917384187" x2="109.0154643284286" y1="238.00000000000003" y2="232.00000000000003" /><line stroke="#6A6A6A" stroke-width="0.3" x1="102.73104585197882" x2="95.4805835556856" y1="261.38121014905056" y2="258.00026405512494" /><line stroke="#6A6A6A" stroke-width="0.44999999999999996" x1="93.28432857547955" x2="84.26327941593479" y1="288.3646252185017" y2="285.0812318425752" /><line stroke="#6A6A6A" stroke-width="0.3" x1="83.17632897718562" x2="75.44892236687309" y1="315.1073532063731" y2="313.03680084555293" /><line stroke="#6A6A6A" stroke-width="0.44999999999999996" x1="78.55874941681532" x2="69.10459498789811" y1="343.32123480951395" y2="341.65421230391144" /><line stroke="#6A6A6A" stroke-width="0.3" x1="73.24813902590745" x2="65.27858144117351" y1="371.4129163787681" y2="370.71567043678687" /><path d="M 78.7580203336405,498.4864990749405 A 336.0,336.0 0 0,0 197.36449076782463,668.0202425157789 L 303.50690036563077,527.6286869122757 A 160.0,160.0 0 0,1 247.027628730305,446.8983328928288 Z" fill="#A7A894" opacity="0.3" stroke="none" /><path d="M 197.36449076782463,668.0202425157789 A 336.0,336.0 0 0,0 329.61420835128354,728.5450354730435 L 366.48295635775406,556.4500168919255 A 160.0,160.0 0 0,1 303.50690036563077,527.6286869122757 Z" fill="#F1F3F4" opacity="0.3" stroke="none" /><path d="M 329.61420835128354,728.5450354730435 A 336.0,336.0 0 0,0 456.2725707331564,731.2542796449306 L 426.796462253884,557.7401331642527 A 160.0,160.0 0 0,1 366.48295635775406,556.4500168919255 Z" fill="#A7A894" opacity="0.3" stroke="none" /><path d="M 456.2725707331564,731.2542796449306 A 336.0,336.0 0 0,0 582.4473354298484,682.1506154424412 L 486.8796835380231,534.357435924972 A 160.0,160.0 0 0,1 426.796462253884,557.7401331642527 Z" fill="#F1F3F4" opacity="0.3" stroke="none" /><path d="M 582.4473354298484,682.1506154424412 A 336.0,336.0 0 0,0 699.6980771287763,551.9113641743569 L 542.713370061322,472.33874484493185 A 160.0,160.0 0 0,1 486.8796835380231,534.357435924972 Z" fill="#A7A894" opacity="0.3" stroke="none" /><path d="M 699.6980771287763,551.9113641743569 A 336.0,336.0 0 0,0 721.2419796663595,301.5135009250595 L 552.972371269695,353.1016671071712 A 160.0,160.0 0 0,1 542.713370061322,472.33874484493185 Z" fill="#F1F3F4" opacity="0.3" stroke="none" /><path d="M 721.2419796663596,301.51350092505953 A 336.0,336.0 0 0,0 602.6355092321752,131.9797574842209 L 496.4930996343691,272.3713130877242 A 160.0,160.0 0 0,1 552.972371269695,353.10166710717124 Z" fill="#A7A894" opacity="0.3" stroke="none" /><path d="M 602.6355092321752,131.9797574842209 A 336.0,336.0 0 0,0 470.38579164871646,71.45496452695642 L 433.51704364224594,243.54998310807449 A 160.0,160.0 0 0,1 496.4930996343691,272.3713130877242 Z" fill="#F1F3F4" opacity="0.3" stroke="none" /><path d="M 470.38579164871646,71.45496452695642 A 336.0,336.0 0 0,0 343.7274292668437,68.74572035506935 L 373.20353774611607,242.2598668357473 A 160.0,160.0 0 0,1 433.51704364224594,243.54998310807449 Z" fill="#A7A894" opacity="0.3" stroke="none" /><path d="M 343.7274292668437,68.74572035506935 A 336.0,336.0 0 0,0 217.55266457015142,117.84938455755884 L 313.12031646197687,265.642564075028 A 160.0,160.0 0 0,1 373.20353774611607,242.2598668357473 Z" fill="#F1F3F4" opacity="0.3" stroke="none" /><path d="M 217.55266457015142,117.84938455755884 A 336.0,336.0 0 0,0 100.30192287122372,248.08863582564317 L 257.28662993867795,327.66125515506815 A 160.0,160.0 0 0,1 313.12031646197687,265.642564075028 Z" fill="#A7A894" opacity="0.3" stroke="none" /><path d="M 100.30192287122372,248.08863582564317 A 336.0,336.0 0 0,0 78.75802033364045,498.4864990749404 L 247.02762873030497,446.89833289282876 A 160.0,160.0 0 0,1 257.28662993867795,327.66125515506815 Z" fill="#F1F3F4" opacity="0.3" stroke="none" /><line stroke="#BDC3C7" stroke-width="0.8" x1="247.027628730305" x2="78.7580203336405" y1="446.8983328928288" y2="498.4864990749405" /><text dominant-baseline="middle" fill="#7F8C8D" font-family="Arial, sans-serif" font-size="11px" text-anchor="middle" x="169.4429699508445" y="544.3172058172996">1</text><line stroke="#BDC3C7" stroke-width="0.8" x1="303.50690036563077" x2="197.36449076782463" y1="527.6286869122757" y2="668.0202425157789" /><text dominant-baseline="middle" fill="#7F8C8D" font-family="Arial, sans-serif" font-size="11px" text-anchor="middle" x="297.70684839396404" y="652.0319645094736">2</text><line stroke="#BDC3C7" stroke-width="0.8" x1="366.48295635775406" x2="329.61420835128354" y1="556.4500168919255" y2="728.5450354730435" /><text dominant-baseline="middle" fill="#7F8C8D" font-family="Arial, sans-serif" font-size="11px" text-anchor="middle" x="413.79935203567493" y="671.6497338180097">3</text><line stroke="#BDC3C7" stroke-width="0.8" x1="426.796462253884" x2="456.2725707331564" y1="557.7401331642527" y2="731.2542796449306" /><text dominant-baseline="middle" fill="#7F8C8D" font-family="Arial, sans-serif" font-size="11px" text-anchor="middle" x="513.4062274930092" y="647.2307172780193">4</text><line stroke="#BDC3C7" stroke-width="0.8" x1="486.8796835380231" x2="582.4473354298484" y1="534.357435924972" y2="682.1506154424412" /><text dominant-baseline="middle" fill="#7F8C8D" font-family="Arial, sans-serif" font-size="11px" text-anchor="middle" x="601.7791087421276" y="582.3984409890409">5</text><line stroke="#BDC3C7" stroke-width="0.8" x1="542.713370061322" x2="699.6980771287763" y1="472.33874484493185" y2="551.9113641743569" /><text dominant-baseline="middle" fill="#7F8C8D" font-family="Arial, sans-serif" font-size="11px" text-anchor="middle" x="666.1743970982225" y="455.99277033151526">6</text><line stroke="#BDC3C7" stroke-width="0.8" x1="552.972371269695" x2="721.2419796663596" y1="353.10166710717124" y2="301.51350092505953" /><text dominant-baseline="middle" fill="#7F8C8D" font-family="Arial, sans-serif" font-size="11px" text-anchor="middle" x="630.5570300491555" y="255.6827941827005">7</text><line stroke="#BDC3C7" stroke-width="0.8" x1="496.4930996343691" x2="602.6355092321752" y1="272.3713130877242" y2="131.9797574842209" /><text dominant-baseline="middle" fill="#7F8C8D" font-family="Arial, sans-serif" font-size="11px" text-anchor="middle" x="502.2931516060359" y="147.9680354905264">8</text><line stroke="#BDC3C7" stroke-width="0.8" x1="433.51704364224594" x2="470.38579164871646" y1="243.54998310807449" y2="71.45496452695642" /><text dominant-baseline="middle" fill="#7F8C8D" font-family="Arial, sans-serif" font-size="11px" text-anchor="middle" x="386.20064796432496" y="128.35026618199032">9</text><line stroke="#BDC3C7" stroke-width="0.8" x1="373.20353774611607" x2="343.7274292668437" y1="242.2598668357473" y2="68.74572035506935" /><text dominant-baseline="middle" fill="#7F8C8D" font-family="Arial, sans-serif" font-size="11px" text-anchor="middle" x="286.59377250699083" y="152.7692827219808">10</text><line stroke="#BDC3C7" stroke-width="0.8" x1="313.12031646197687" x2="217.55266457015142" y1="265.642564075028" y2="117.84938455755884" /><text dominant-baseline="middle" fill="#7F8C8D" font-family="Arial, sans-serif" font-size="11px" text-anchor="middle" x="198.22089125787244" y="217.60155901095902">11</text><line stroke="#BDC3C7" stroke-width="0.8" x1="257.28662993867795" x2="100.30192287122372" y1="327.66125515506815" y2="248.08863582564317" /><text dominant-baseline="middle" fill="#7F8C8D" font-family="Arial, sans-serif" font-size="11px" text-anchor="middle" x="133.8256029017776" y="344.0072296684847">12</text><line stroke="#95A5A6" stroke-width="0.6" x1="96.0" x2="64.0" y1="399.99999999999994" y2="399.99999999999994" /><text dominant-baseline="middle" fill="#34495E" font-family="&quot;Symbola&quot;, &quot;Noto Sans Symbols&quot;, &quot;Apple Symbols&quot;, &quot;Segoe UI Symbol&quot;, serif" font-size="22px" font-weight="bold" text-anchor="middle" x="106.35854880812326" y="478.6809897111663">♈</text><line stroke="#95A5A6" stroke-width="0.6" x1="136.72827724953066" x2="109.0154643284286" y1="552.0" y2="568.0" /><text dominant-baseline="middle" fill="#34495E" font-family="&quot;Symbola&quot;, &quot;Noto Sans Symbols&quot;, &quot;Apple Symbols&quot;, &quot;Segoe UI Symbol&quot;, serif" font-size="22px" font-weight="bold" text-anchor="middle" x="185.0395385192895" y="614.9604614807104">♉</text><line stroke="#95A5A6" stroke-width="0.6" x1="247.99999999999986" x2="231.99999999999986" y1="663.2717227504693" y2="690.9845356715713" /><text dominant-baseline="middle" fill="#34495E" font-family="&quot;Symbola&quot;, &quot;Noto Sans Symbols&quot;, &quot;Apple Symbols&quot;, &quot;Segoe UI Symbol&quot;, serif" font-size="22px" font-weight="bold" text-anchor="middle" x="321.31901028883374" y="693.6414511918767">♊</text><line stroke="#95A5A6" stroke-width="0.6" x1="399.99999999999994" x2="399.99999999999994" y1="704.0" y2="736.0" /><text dominant-baseline="middle" fill="#34495E" font-family="&quot;Symbola&quot;, &quot;Noto Sans Symbols&quot;, &quot;Apple Symbols&quot;, &quot;Segoe UI Symbol&quot;, serif" font-size="22px" font-weight="bold" text-anchor="middle" x="478.68098971116615" y="693.6414511918767">♋</text><line stroke="#95A5A6" stroke-width="0.6" x1="552.0" x2="568.0" y1="663.2717227504693" y2="690.9845356715714" /><text dominant-baseline="middle" fill="#34495E" font-family="&quot;Symbola&quot;, &quot;Noto Sans Symbols&quot;, &quot;Apple Symbols&quot;, &quot;Segoe UI Symbol&quot;, serif" font-size="22px" font-weight="bold" text-anchor="middle" x="614.9604614807104" y="614.9604614807105">♌</text><line stroke="#95A5A6" stroke-width="0.6" x1="663.2717227504693" x2="690.9845356715713" y1="552.0000000000001" y2="568.0000000000001" /><text dominant-baseline="middle" fill="#34495E" font-family="&quot;Symbola&quot;, &quot;Noto Sans Symbols&quot;, &quot;Apple Symbols&quot;, &quot;Segoe UI Symbol&quot;, serif" font-size="22px" font-weight="bold" text-anchor="middle" x="693.6414511918767" y="478.68098971116626">♍</text><line stroke="#95A5A6" stroke-width="0.6" x1="704.0" x2="736.0" y1="400.0" y2="400.0" /><text dominant-baseline="middle" fill="#34495E" font-family="&quot;Symbola&quot;, &quot;Noto Sans Symbols&quot;, &quot;Apple Symbols&quot;, &quot;Segoe UI Symbol&quot;, serif" font-size="22px" font-weight="bold" text-anchor="middle" x="693.6414511918767" y="321.3190102888337">♎</text><line stroke="#95A5A6" stroke-width="0.6" x1="663.2717227504694" x2="690.9845356715714" y1="248.00000000000003" y2="232.00000000000003" /><text dominant-baseline="middle" fill="#34495E" font-family="&quot;Symbola&quot;, &quot;Noto Sans Symbols&quot;, &quot;Apple Symbols&quot;, &quot;Segoe UI Symbol&quot;, serif" font-size="22px" font-weight="bold" text-anchor="middle" x="614.9604614807105" y="185.03953851928958">♏</text><line stroke="#95A5A6" stroke-width="0.6" x1="552.0" x2="568.0" y1="136.72827724953066" y2="109.0154643284286" /><text dominant-baseline="middle" fill="#34495E" font-family="&quot;Symbola&quot;, &quot;Noto Sans Symbols&quot;, &quot;Apple Symbols&quot;, &quot;Segoe UI Symbol&quot;, serif" font-size="22px" font-weight="bold" text-anchor="middle" x="478.6809897111663" y="106.35854880812326">♐</text><line stroke="#95A5A6" stroke-width="0.6" x1="400.0" x2="400.0" y1="96.0" y2="64.0" /><text dominant-baseline="middle" fill="#34495E" font-family="&quot;Symbola&quot;, &quot;Noto Sans Symbols&quot;, &quot;Apple Symbols&quot;, &quot;Segoe UI Symbol&quot;, serif" font-size="22px" font-weight="bold" text-anchor="middle" x="321.3190102888337" y="106.35854880812326">♑</text><line stroke="#95A5A6" stroke-width="0.6" x1="248.00000000000006" x2="232.00000000000006" y1="136.7282772495306" y2="109.0154643284286" /><text dominant-baseline="middle" fill="#34495E" font-family="&quot;Symbola&quot;, &quot;Noto Sans Symbols&quot;, &quot;Apple Symbols&quot;, &quot;Segoe UI Symbol&quot;, serif" font-size="22px" font-weight="bold" text-anchor="middle" x="185.03953851928958" y="185.03953851928955">♒</text><line stroke="#95A5A6" stroke-width="0.6" x1="136.7282772495306" x2="109.0154643284286" y1="248.00000000000003" y2="232.00000000000003" /><text dominant-baseline="middle" fill="#34495E" font-family="&quot;Symbola&quot;, &quot;Noto Sans Symbols&quot;, &quot;Apple Symbols&quot;, &quot;Segoe UI Symbol&quot;, serif" font-size="22px" font-weight="bold" text-anchor="middle" x="106.35854880812326" y="321.3190102888336">♓</text><line opacity="0.3801708448150769" stroke="#27AE60" stroke-width="1.0" x1="355.164811721706" x2="522.2409790832426" y1="246.41026762166058" y2="296.7665604914267" /><path d="M 334.8329127696416,170.05598346138493 A 239.00000000000003,239.00000000000003 0 0,0 324.06435616008844,173.38407382838662" fill="none" opacity="0.6919084375332546" stroke="#34495E" stroke-width="1.2" /><path d="M 345.38768903509674,167.3231952018579 A 239.00000000000003,239.00000000000003 0 0,0 330.5772481336436,171.30482837781136" fill="none" opacity="0.6529109692414852" stroke="#34495E" stroke-width="1.2" /><path d="M 346.9281134846027,166.96700907018163 A 239.00000000000003,239.00000000000003 0 0,0 330.2747288353009,171.39687980911285" fill="none" opacity="0.6347174249770456" stroke="#34495E" stroke-width="1.2" /><line opacity="0.40332255282222546" stroke="#27AE60" stroke-width="1.0" x1="355.164811721706" x2="521.4428157885301" y1="246.41026762166058" y2="295.82878279796694" /><path d="M 338.70163115114013,168.9945672143853 A 239.00000000000003,239.00000000000003 0 0,0 305.3346783270248,180.54732429848994" fill="none" opacity="0.46109159853344867" stroke="#34495E" stroke-width="1.2" /><path d="M 337.45061209075305,169.33016219674806 A 239.00000000000003,239.00000000000003 0 0,0 311.31528135269053,178.06302543639202" fill="none" opacity="0.5356145627529884" stroke="#34495E" stroke-width="1.2" /><line opacity="0.36953701510802894" stroke="#3498DB" stroke-width="1.3" x1="355.164811721706" x2="549.4716678392417" y1="246.41026762166058" y2="457.08082439274517" /><line opacity="0.552628691369049" stroke="#27AE60" stroke-width="1.0" x1="355.164811721706" x2="242.89696311563023" y1="246.41026762166058" y2="369.690994709355" /><line opacity="0.28559072765667465" stroke="#27AE60" stroke-width="1.0" x1="522.2409790832426" x2="350.35851386883076" y1="296.7665604914267" y2="247.89568429959348" /><line opacity="0.5088737467287774" stroke="#27AE60" stroke-width="1.0" x1="522.2409790832426" x2="361.7754017065061" y1="296.7665604914267" y2="244.63307917931493" /><line opacity="0.524793097960162" stroke="#27AE60" stroke-width="1.0" x1="522.2409790832426" x2="362.5981795831447" y1="296.7665604914267" y2="244.4329603370132" /><path d="M 582.8938392463601,246.1466816551343 A 239.00000000000003,239.00000000000003 0 0,0 581.105460131894,244.0454799936374" fill="none" opacity="0.7735409051346875" stroke="#34495E" stroke-width="1.2" /><line opacity="0.6431740434044483" stroke="#27AE60" stroke-width="1.0" x1="522.2409790832426" x2="549.4716678392417" y1="296.7665604914267" y2="457.08082439274517" /><line opacity="0.3976147511834155" stroke="#27AE60" stroke-width="1.0" x1="522.2409790832426" x2="544.3192906769181" y1="296.7665604914267" y2="469.0792468004047" /><line opacity="0.5155775593645444" stroke="#3498DB" stroke-width="1.3" x1="522.2409790832426" x2="254.47462949432426" y1="296.7665604914267" y2="333.49912377129306" /><path d="M 347.21834608498375,166.90110036725727 A 239.00000000000003,239.00000000000003 0 0,0 321.644722950729,174.20927707602334" fill="none" opacity="0.5448194067747398" stroke="#34495E" stroke-width="1.2" /><path d="M 348.76152276578694,166.55703383755798 A 239.00000000000003,239.00000000000003 0 0,0 321.34605426392716,174.3131443345738" fill="none" opacity="0.5266258625103001" stroke="#34495E" stroke-width="1.2" /><line opacity="0.3087424356638231" stroke="#27AE60" stroke-width="1.0" x1="350.35851386883076" x2="521.4428157885301" y1="247.89568429959348" y2="295.82878279796694" /><path d="M 329.6720544557137,171.5815680039811 A 239.00000000000003,239.00000000000003 0 0,0 307.06262375072714,179.80998184317912" fill="none" opacity="0.5691831610001942" stroke="#34495E" stroke-width="1.2" /><path d="M 328.43518808309574,171.96606021186642 A 239.00000000000003,239.00000000000003 0 0,0 313.062569986124,177.37277061737836" fill="none" opacity="0.6437061252197339" stroke="#34495E" stroke-width="1.2" /><line opacity="0.42005646637396243" stroke="#F39C12" stroke-dasharray="2,2" stroke-width="1.3" x1="350.35851386883076" x2="254.2989782969085" y1="247.89568429959348" y2="466.11514406454296" /><line opacity="0.6472088085274513" stroke="#27AE60" stroke-width="1.0" x1="350.35851386883076" x2="242.89696311563023" y1="247.89568429959348" y2="369.690994709355" /><path d="M 344.43853270992724,167.54801925435396 A 239.00000000000003,239.00000000000003 0 0,0 342.5949987193724,167.99640988128832" fill="none" opacity="0.7818064557355604" stroke="#34495E" stroke-width="1.2" /><line opacity="0.5320254547359258" stroke="#27AE60" stroke-width="1.0" x1="361.7754017065061" x2="521.4428157885301" y1="244.63307917931493" y2="295.82878279796694" /><path d="M 349.87110306597464,166.31625282836234 A 239.00000000000003,239.00000000000003 0 0,0 308.94642549064224,179.02433036854748" fill="none" opacity="0.3885255319944736" stroke="#34495E" stroke-width="1.2" /><line opacity="0.5166260458665438" stroke="#3498DB" stroke-width="1.3" x1="361.7754017065061" x2="549.4716678392417" y1="244.63307917931493" y2="457.08082439274517" /><line opacity="0.4239257894553487" stroke="#27AE60" stroke-width="1.0" x1="361.7754017065061" x2="242.89696311563023" y1="244.63307917931493" y2="369.690994709355" /><line opacity="0.5479448059673105" stroke="#27AE60" stroke-width="1.0" x1="362.5981795831447" x2="521.4428157885301" y1="244.4329603370132" y2="295.82878279796694" /><path d="M 351.4180906491449,165.98974790871807 A 239.00000000000003,239.00000000000003 0 0,0 308.6541385778755,179.14499416800615" fill="none" opacity="0.37033198773003395" stroke="#34495E" stroke-width="1.2" /><line opacity="0.5348195901309833" stroke="#3498DB" stroke-width="1.3" x1="362.5981795831447" x2="549.4716678392417" y1="244.4329603370132" y2="457.08082439274517" /><line opacity="0.408006438223964" stroke="#27AE60" stroke-width="1.0" x1="362.5981795831447" x2="242.89696311563023" y1="244.4329603370132" y2="369.690994709355" /><line opacity="0.6200223353972998" stroke="#27AE60" stroke-width="1.0" x1="521.4428157885301" x2="549.4716678392417" y1="295.82878279796694" y2="457.08082439274517" /><line opacity="0.374463043176267" stroke="#27AE60" stroke-width="1.0" x1="521.4428157885301" x2="544.3192906769181" y1="295.82878279796694" y2="469.0792468004047" /><line opacity="0.4891184644992319" stroke="#3498DB" stroke-width="1.3" x1="521.4428157885301" x2="254.47462949432426" y1="295.82878279796694" y2="333.49912377129306" /><line opacity="0.7806254425376177" stroke="#F39C12" stroke-dasharray="2,2" stroke-width="1.3" x1="264.9466597086591" x2="486.5536828150756" y1="314.20608835033056" y2="265.43232189285834" /><line opacity="0.5202467310117118" stroke="#F39C12" stroke-dasharray="2,2" stroke-width="1.3" x1="264.9466597086591" x2="474.53189602748444" y1="314.20608835033056" y2="258.419646579943" /><line opacity="0.5202467310117118" stroke="#F39C12" stroke-dasharray="2,2" stroke-width="1.3" x1="264.9466597086591" x2="325.4681039725155" y1="314.20608835033056" y2="541.580353420057" /><line opacity="0.520428660772168" stroke="#27AE60" stroke-width="1.0" x1="264.9466597086591" x2="262.844986105992" y1="314.20608835033056" y2="482.3923671448665" /><line opacity="0.43777564398581154" stroke="#E74C3C" stroke-width="1.8" x1="264.9466597086591" x2="544.3192906769181" y1="314.20608835033056" y2="469.0792468004047" /><line opacity="0.5337529455381727" stroke="#27AE60" stroke-width="1.0" x1="264.9466597086591" x2="254.2989782969085" y1="314.20608835033056" y2="466.11514406454296" /><path d="M 202.78118650138276,264.99726076039184 A 239.00000000000003,239.00000000000003 0 0,0 179.34033435681886,308.1832697258309" fill="none" opacity="0.3279732048959534" stroke="#34495E" stroke-width="1.2" /><line opacity="0.7796027870389156" stroke="#3498DB" stroke-width="1.3" x1="264.9466597086591" x2="541.3844465974897" y1="314.20608835033056" y2="325.09714117390735" /><path d="M 316.81154524109786,175.9449152667449 A 239.00000000000003,239.00000000000003 0 0,0 309.5712551527948,178.76789992101266" fill="none" opacity="0.7254770357804603" stroke="#34495E" stroke-width="1.2" /><line opacity="0.42021982551980464" stroke="#27AE60" stroke-width="1.0" x1="340.2654637051638" x2="486.5536828150756" y1="251.5689211329349" y2="265.43232189285834" /><line opacity="0.6508733053737683" stroke="#F39C12" stroke-dasharray="2,2" stroke-width="1.3" x1="340.2654637051638" x2="254.2989782969085" y1="251.5689211329349" y2="466.11514406454296" /><line opacity="0.44047945874202415" stroke="#F39C12" stroke-dasharray="2,2" stroke-width="1.3" x1="340.2654637051638" x2="541.3844465974897" y1="251.5689211329349" y2="325.09714117390735" /><line opacity="0.5508264573477184" stroke="#27AE60" stroke-width="1.0" x1="340.2654637051638" x2="242.89696311563023" y1="251.5689211329349" y2="369.690994709355" /><line opacity="0.35501223182770736" stroke="#27AE60" stroke-width="1.0" x1="343.4969135472011" x2="486.5536828150756" y1="250.30898082614465" y2="265.43232189285834" /><line opacity="0.5763503411542286" stroke="#F39C12" stroke-dasharray="2,2" stroke-width="1.3" x1="343.4969135472011" x2="254.2989782969085" y1="250.30898082614465" y2="466.11514406454296" /><line opacity="0.3659564945224844" stroke="#F39C12" stroke-dasharray="2,2" stroke-width="1.3" x1="343.4969135472011" x2="541.3844465974897" y1="250.30898082614465" y2="325.09714117390735" /><line opacity="0.6160340510398157" stroke="#27AE60" stroke-width="1.0" x1="343.4969135472011" x2="242.89696311563023" y1="250.30898082614465" y2="369.690994709355" /><path d="M 533.6312488803383,201.8493267165587 A 239.00000000000003,239.00000000000003 0 0,0 506.7055548585713,186.14274723001688" fill="none" opacity="0.5008721735493293" stroke="#34495E" stroke-width="1.2" /><line opacity="0.5634811952429956" stroke="#E74C3C" stroke-width="1.8" x1="486.5536828150756" x2="325.4681039725155" y1="265.43232189285834" y2="541.580353420057" /><line opacity="0.36975934830278334" stroke="#F39C12" stroke-dasharray="2,2" stroke-width="1.3" x1="486.5536828150756" x2="544.3192906769181" y1="265.43232189285834" y2="469.0792468004047" /><line opacity="0.9" stroke="#E74C3C" stroke-width="1.8" x1="474.53189602748444" x2="325.4681039725155" y1="258.419646579943" y2="541.580353420057" /><line opacity="0.3882479836437023" stroke="#F39C12" stroke-dasharray="2,2" stroke-width="1.3" x1="474.53189602748444" x2="549.4716678392417" y1="258.419646579943" y2="457.08082439274517" /><line opacity="0.668887174753454" stroke="#F39C12" stroke-dasharray="2,2" stroke-width="1.3" x1="474.53189602748444" x2="544.3192906769181" y1="258.419646579943" y2="469.0792468004047" /><line opacity="0.6077264738842416" stroke="#F39C12" stroke-dasharray="2,2" stroke-width="1.3" x1="474.53189602748444" x2="254.47462949432426" y1="258.419646579943" y2="333.49912377129306" /><line opacity="0.3882479836437023" stroke="#F39C12" stroke-dasharray="2,2" stroke-width="1.3" x1="325.4681039725155" x2="549.4716678392417" y1="541.580353420057" y2="457.08082439274517" /><line opacity="0.668887174753454" stroke="#F39C12" stroke-dasharray="2,2" stroke-width="1.3" x1="325.4681039725155" x2="544.3192906769181" y1="541.580353420057" y2="469.0792468004047" /><line opacity="0.6077264738842416" stroke="#F39C12" stroke-dasharray="2,2" stroke-width="1.3" x1="325.4681039725155" x2="254.47462949432426" y1="541.580353420057" y2="333.49912377129306" /><line opacity="0.5943582934541166" stroke="#3498DB" stroke-width="1.3" x1="262.844986105992" x2="544.3192906769181" y1="482.3923671448665" y2="469.0792468004047" /><path d="M 179.6109010834613,492.46429083033155 A 239.00000000000003,239.00000000000003 0 0,0 198.74611818813844,528.9103372722966" fill="none" opacity="0.4047789786403894" stroke="#34495E" stroke-width="1.2" /><line opacity="0.4665478935117911" stroke="#27AE60" stroke-width="1.0" x1="262.844986105992" x2="254.47462949432426" y1="482.3923671448665" y2="333.49912377129306" /><line opacity="0.6920694284311503" stroke="#E74C3C" stroke-width="1.8" x1="262.844986105992" x2="541.3844465974897" y1="482.3923671448665" y2="325.09714117390735" /><path d="M 613.426282129067,507.5649668645136 A 239.00000000000003,239.00000000000003 0 0,0 624.9668201332519,480.69033299679165" fill="none" opacity="0.5193608088902483" stroke="#34495E" stroke-width="1.2" /><line opacity="0.6530866984793933" stroke="#E74C3C" stroke-width="1.8" x1="549.4716678392417" x2="254.47462949432426" y1="457.08082439274517" y2="333.49912377129306" /><line opacity="0.8311942115221361" stroke="#E74C3C" stroke-width="1.8" x1="544.3192906769181" x2="254.47462949432426" y1="469.0792468004047" y2="333.49912377129306" /><line opacity="0.35833972888546883" stroke="#27AE60" stroke-width="1.0" x1="544.3192906769181" x2="541.3844465974897" y1="469.0792468004047" y2="325.09714117390735" /><line opacity="0.6633069225392879" stroke="#E74C3C" stroke-width="1.8" x1="254.2989782969085" x2="541.3844465974897" y1="466.11514406454296" y2="325.09714117390735" /><line opacity="0.34837041785703776" stroke="#3498DB" stroke-width="1.3" x1="254.47462949432426" x2="541.3844465974897" y1="333.49912377129306" y2="325.09714117390735" /><line opacity="0.8" stroke="#595959" stroke-width="2" x1="247.027628730305" x2="78.7580203336405" y1="446.8983328928288" y2="498.4864990749405" /><text dominant-baseline="middle" fill="#949494" font-family="Arial, sans-serif" font-size="12px" font-weight="bold" text-anchor="start" x="59.63647392492862" y="504.34879068654413">Asc</text><line opacity="0.8" stroke="#595959" stroke-width="2" x1="373.20353774611607" x2="343.7274292668437" y1="242.2598668357473" y2="68.74572035506935" /><text dominant-baseline="middle" fill="#949494" font-family="Arial, sans-serif" font-size="12px" font-weight="bold" text-anchor="middle" x="340.37787148510824" y="49.02820370953776">MC</text><text dominant-baseline="middle" fill="#2C3E50" font-family="&quot;Symbola&quot;, &quot;Noto Sans Symbols&quot;, &quot;Apple Symbols&quot;, &quot;Segoe UI Symbol&quot;, serif" font-size="24px" font-weight="bold" text-anchor="middle" x="196.0185696156719" y="492.5612016903601">⚳</text><text dominant-baseline="middle" fill="#2C3E50" font-family="Arial, sans-serif" font-size="10px" font-weight="normal" text-anchor="start" x="214.0185696156719" y="496.5612016903601">♈︎ 24°24'</text><text dominant-baseline="middle" fill="#2C3E50" font-family="&quot;Symbola&quot;, &quot;Noto Sans Symbols&quot;, &quot;Apple Symbols&quot;, &quot;Segoe UI Symbol&quot;, serif" font-size="24px" font-weight="bold" text-anchor="middle" x="207.98298054838878" y="515.3493140028131">⚸</text><text dominant-baseline="middle" fill="#2C3E50" font-family="Arial, sans-serif" font-size="10px" font-weight="normal" text-anchor="start" x="225.98298054838878" y="519.3493140028131">♉︎ 00°59'</text><text dominant-baseline="middle" fill="#2C3E50" font-family="&quot;Symbola&quot;, &quot;Noto Sans Symbols&quot;, &quot;Apple Symbols&quot;, &quot;Segoe UI Symbol&quot;, serif" font-size="24px" font-weight="bold" text-anchor="middle" x="295.6553455615217" y="598.2124947880798">?</text><text dominant-baseline="middle" fill="#2C3E50" font-family="Arial, sans-serif" font-size="10px" font-weight="normal" text-anchor="start" x="313.6553455615217" y="602.2124947880798">♊︎ 02°14'</text><text dominant-baseline="middle" fill="#E74C3C" font-family="&quot;Symbola&quot;, &quot;Noto Sans Symbols&quot;, &quot;Apple Symbols&quot;, &quot;Segoe UI Symbol&quot;, serif" font-size="24px" font-weight="bold" text-anchor="middle" x="602.0470069476853" y="496.71094552056655">𝛷</text><text dominant-baseline="middle" fill="#2C3E50" font-family="Arial, sans-serif" font-size="10px" font-weight="normal" text-anchor="end" x="584.0470069476853" y="500.71094552056655">♍︎ 04°25' ℞</text><text dominant-baseline="middle" fill="#E74C3C" font-family="&quot;Symbola&quot;, &quot;Noto Sans Symbols&quot;, &quot;Apple Symbols&quot;, &quot;Segoe UI Symbol&quot;, serif" font-size="24px" font-weight="bold" text-anchor="middle" x="615.4289265281739" y="461.3708205494977">⚷</text><line opacity="0.6" stroke="#999999" stroke-width="0.5" x1="609.2603349749384" x2="615.4289265281739" y1="479.9131541498432" y2="461.3708205494977" /><text dominant-baseline="middle" fill="#2C3E50" font-family="Arial, sans-serif" font-size="10px" font-weight="normal" text-anchor="end" x="597.4289265281739" y="465.3708205494977">♍︎ 09°05' ℞</text><text dominant-baseline="middle" fill="#2C3E50" font-family="&quot;Symbola&quot;, &quot;Noto Sans Symbols&quot;, &quot;Apple Symbols&quot;, &quot;Segoe UI Symbol&quot;, serif" font-size="24px" font-weight="bold" text-anchor="middle" x="597.9382252364857" y="295.13599764347026">⚵</text><text dominant-baseline="middle" fill="#2C3E50" font-family="Arial, sans-serif" font-size="10px" font-weight="normal" text-anchor="end" x="579.9382252364857" y="299.13599764347026">♎︎ 27°54'</text><text dominant-baseline="middle" fill="#2C3E50" font-family="&quot;Symbola&quot;, &quot;Noto Sans Symbols&quot;, &quot;Apple Symbols&quot;, &quot;Segoe UI Symbol&quot;, serif" font-size="24px" font-weight="bold" text-anchor="middle" x="571.1373707165395" y="255.4731846879973">☽</text><text dominant-baseline="middle" fill="#2C3E50" font-family="Arial, sans-serif" font-size="10px" font-weight="normal" text-anchor="end" x="553.1373707165395" y="259.47318468799733">♏︎ 10°10'</text><text dominant-baseline="middle" fill="#2C3E50" font-family="&quot;Symbola&quot;, &quot;Noto Sans Symbols&quot;, &quot;Apple Symbols&quot;, &quot;Segoe UI Symbol&quot;, serif" font-size="24px" font-weight="bold" text-anchor="middle" x="556.6621971623736" y="239.89704568541646">♃</text><line opacity="0.6" stroke="#999999" stroke-width="0.5" x1="570.0199421039421" x2="556.6621971623736" y1="254.16029591715366" y2="239.89704568541646" /><text dominant-baseline="middle" fill="#2C3E50" font-family="Arial, sans-serif" font-size="10px" font-weight="normal" text-anchor="end" x="538.6621971623736" y="243.89704568541646">♏︎ 10°37'</text><text dominant-baseline="middle" fill="#2C3E50" font-family="&quot;Symbola&quot;, &quot;Noto Sans Symbols&quot;, &quot;Apple Symbols&quot;, &quot;Segoe UI Symbol&quot;, serif" font-size="24px" font-weight="bold" text-anchor="middle" x="521.1751559411059" y="211.6052506500017">♇</text><text dominant-baseline="middle" fill="#2C3E50" font-family="Arial, sans-serif" font-size="10px" font-weight="normal" text-anchor="start" x="539.1751559411059" y="215.6052506500017">♏︎ 27°15'</text><text dominant-baseline="middle" fill="#2C3E50" font-family="&quot;Symbola&quot;, &quot;Noto Sans Symbols&quot;, &quot;Apple Symbols&quot;, &quot;Segoe UI Symbol&quot;, serif" font-size="24px" font-weight="bold" text-anchor="middle" x="486.67223432070597" y="193.44752773724383">☊</text><line opacity="0.6" stroke="#999999" stroke-width="0.5" x1="504.34465443847824" x2="486.67223432070597" y1="201.78750521192018" y2="193.44752773724383" /><text dominant-baseline="middle" fill="#2C3E50" font-family="Arial, sans-serif" font-size="10px" font-weight="normal" text-anchor="start" x="504.67223432070597" y="197.44752773724383">♐︎ 02°14'</text><text dominant-baseline="middle" fill="#2C3E50" font-family="&quot;Symbola&quot;, &quot;Noto Sans Symbols&quot;, &quot;Apple Symbols&quot;, &quot;Segoe UI Symbol&quot;, serif" font-size="24px" font-weight="bold" text-anchor="middle" x="347.6374514164026" y="182.20614447181848">♂</text><text dominant-baseline="middle" fill="#2C3E50" font-family="Arial, sans-serif" font-size="10px" font-weight="normal" text-anchor="start" x="365.6374514164026" y="186.20614447181848">♑︎ 13°31'</text><text dominant-baseline="middle" fill="#2C3E50" font-family="&quot;Symbola&quot;, &quot;Noto Sans Symbols&quot;, &quot;Apple Symbols&quot;, &quot;Segoe UI Symbol&quot;, serif" font-size="24px" font-weight="bold" text-anchor="middle" x="327.7316338451077" y="187.97810666513132">♀</text><line opacity="0.6" stroke="#999999" stroke-width="0.5" x1="346.48556238910857" x2="327.7316338451077" y1="182.48631085104088" y2="187.97810666513132" /><text dominant-baseline="middle" fill="#2C3E50" font-family="Arial, sans-serif" font-size="10px" font-weight="normal" text-anchor="start" x="345.7316338451077" y="191.97810666513132">♑︎ 13°49'</text><text dominant-baseline="middle" fill="#2C3E50" font-family="&quot;Symbola&quot;, &quot;Noto Sans Symbols&quot;, &quot;Apple Symbols&quot;, &quot;Segoe UI Symbol&quot;, serif" font-size="24px" font-weight="bold" text-anchor="middle" x="300.84553457589334" y="199.14086531486888">☉</text><line opacity="0.6" stroke="#999999" stroke-width="0.5" x1="337.2307364103884" x2="300.84553457589334" y1="184.97437467032478" y2="199.14086531486888" /><text dominant-baseline="middle" fill="#2C3E50" font-family="Arial, sans-serif" font-size="10px" font-weight="normal" text-anchor="start" x="318.84553457589334" y="203.14086531486888">♑︎ 16°16'</text><text dominant-baseline="middle" fill="#2C3E50" font-family="&quot;Symbola&quot;, &quot;Noto Sans Symbols&quot;, &quot;Apple Symbols&quot;, &quot;Segoe UI Symbol&quot;, serif" font-size="24px" font-weight="bold" text-anchor="middle" x="368.5354435530786" y="178.22087183957436">☿</text><line opacity="0.6" stroke="#999999" stroke-width="0.5" x1="330.501919416363" x2="368.5354435530786" y1="187.05395801943087" y2="178.22087183957436" /><text dominant-baseline="middle" fill="#2C3E50" font-family="Arial, sans-serif" font-size="10px" font-weight="normal" text-anchor="start" x="386.5354435530786" y="182.22087183957436">♑︎ 18°04'</text><text dominant-baseline="middle" fill="#2C3E50" font-family="&quot;Symbola&quot;, &quot;Noto Sans Symbols&quot;, &quot;Apple Symbols&quot;, &quot;Segoe UI Symbol&quot;, serif" font-size="24px" font-weight="bold" text-anchor="middle" x="269.351052042076" y="218.04711489649944">♆</text><line opacity="0.6" stroke="#999999" stroke-width="0.5" x1="320.8956789660815" x2="269.351052042076" y1="190.43257315660247" y2="218.04711489649944" /><text dominant-baseline="middle" fill="#2C3E50" font-family="Arial, sans-serif" font-size="10px" font-weight="normal" text-anchor="start" x="287.351052042076" y="222.04711489649944">♑︎ 20°40'</text><text dominant-baseline="middle" fill="#2C3E50" font-family="&quot;Symbola&quot;, &quot;Noto Sans Symbols&quot;, &quot;Apple Symbols&quot;, &quot;Segoe UI Symbol&quot;, serif" font-size="24px" font-weight="bold" text-anchor="middle" x="290.0176329338101" y="223.45573094966272">♅</text><line opacity="0.6" stroke="#999999" stroke-width="0.5" x1="316.37164918722937" x2="290.0176329338101" y1="192.1964895861088" y2="223.45573094966272" /><text dominant-baseline="middle" fill="#2C3E50" font-family="Arial, sans-serif" font-size="10px" font-weight="normal" text-anchor="start" x="308.0176329338101" y="227.45573094966272">♑︎ 21°55'</text><text dominant-baseline="middle" fill="#2C3E50" font-family="&quot;Symbola&quot;, &quot;Noto Sans Symbols&quot;, &quot;Apple Symbols&quot;, &quot;Segoe UI Symbol&quot;, serif" font-size="24px" font-weight="bold" text-anchor="middle" x="210.92532359212274" y="279.88852369046276">♄</text><text dominant-baseline="middle" fill="#2C3E50" font-family="Arial, sans-serif" font-size="10px" font-weight="normal" text-anchor="start" x="228.92532359212274" y="283.88852369046276">♒︎ 27°34'</text><text dominant-baseline="middle" fill="#2C3E50" font-family="&quot;Symbola&quot;, &quot;Noto Sans Symbols&quot;, &quot;Apple Symbols&quot;, &quot;Segoe UI Symbol&quot;, serif" font-size="24px" font-weight="bold" text-anchor="middle" x="196.26448129205394" y="306.89877327981026">⚴</text><text dominant-baseline="middle" fill="#2C3E50" font-family="Arial, sans-serif" font-size="10px" font-weight="normal" text-anchor="start" x="214.26448129205394" y="310.89877327981026">♓︎ 05°26'</text><text dominant-baseline="middle" fill="#2C3E50" font-family="&quot;Symbola&quot;, &quot;Noto Sans Symbols&quot;, &quot;Apple Symbols&quot;, &quot;Segoe UI Symbol&quot;, serif" font-size="24px" font-weight="bold" text-anchor="middle" x="180.05574836188228" y="357.56739259309694">⚶</text><text dominant-baseline="middle" fill="#2C3E50" font-family="Arial, sans-serif" font-size="10px" font-weight="normal" text-anchor="start" x="198.05574836188228" y="361.56739259309694">♓︎ 19°04'</text></svg>