<?xml version="1.0" encoding="utf-8" ?>
<svg baseProfile="full" height="600px" version="1.1" viewBox="0 0 600 600" width="600px" xmlns="http://www.w3.org/2000/svg" xmlns:ev="http://www.w3.org/2001/xml-events" xmlns:xlink="http://www.w3.org/1999/xlink"><defs /><rect fill="#FFFFFF" height="600px" width="600px" x="0" y="0" /><circle cx="300" cy="300" fill="none" r="288.0" stroke="#999999" stroke-width="1" /><circle cx="300" cy="300" fill="none" r="108.0" stroke="#999999" stroke-width="1" /><path d="M 36.73871469733939,198.91837129927546 A 282.0,282.0 0 0,0 21.46822474459077,344.0913843405966 L 80.7303045861672,334.71023873621436 A 222.0,222.0 0 0,1 92.7517541234374,220.42510081006793 Z" fill="#E8B4B8" stroke="none" /><path d="M 21.46822474459077,344.0913843405966 A 282.0,282.0 0 0,0 80.83009903793604,477.4501465546847 L 127.46199285965179,439.69479622390077 A 222.0,222.0 0 0,1 80.7303045861672,334.71023873621436 Z" fill="#E8C4B8" stroke="none" /><path d="M 80.83009903793604,477.4501465546847 A 282.0,282.0 0 0,0 198.91837129927546,563.2612853026606 L 220.42510081006793,507.2482458765626 A 222.0,222.0 0 0,1 127.46199285965179,439.69479622390077 Z" fill="#E8D8B8" stroke="none" /><path d="M 198.91837129927546,563.2612853026606 A 282.0,282.0 0 0,0 344.09138434059673,578.5317752554092 L 334.7102387362144,519.2696954138328 A 222.0,222.0 0 0,1 220.42510081006793,507.2482458765626 Z" fill="#E8E8B8" stroke="none" /><path d="M 344.09138434059673,578.5317752554092 A 282.0,282.0 0 0,0 477.4501465546846,519.169900962064 L 439.69479622390065,472.53800714034827 A 222.0,222.0 0 0,1 334.7102387362144,519.2696954138328 Z" fill="#D8E8B8" stroke="none" /><path d="M 477.4501465546846,519.169900962064 A 282.0,282.0 0 0,0 563.2612853026606,401.08162870072454 L 507.2482458765626,379.5748991899321 A 222.0,222.0 0 0,1 439.69479622390065,472.53800714034827 Z" fill="#C4E8B8" stroke="none" /><path d="M 563.2612853026606,401.08162870072454 A 282.0,282.0 0 0,0 578.5317752554092,255.90861565940332 L 519.2696954138328,265.2897612637856 A 222.0,222.0 0 0,1 507.2482458765626,379.5748991899321 Z" fill="#B8E8C4" stroke="none" /><path d="M 578.5317752554092,255.90861565940332 A 282.0,282.0 0 0,0 519.1699009620639,122.54985344531528 L 472.5380071403482,160.30520377609926 A 222.0,222.0 0 0,1 519.2696954138328,265.2897612637856 Z" fill="#B8E8D8" stroke="none" /><path d="M 519.1699009620639,122.54985344531528 A 282.0,282.0 0 0,0 401.08162870072454,36.73871469733939 L 379.57489918993207,92.75175412343737 A 222.0,222.0 0 0,1 472.5380071403482,160.30520377609926 Z" fill="#B8D8E8" stroke="none" /><path d="M 401.08162870072454,36.73871469733939 A 282.0,282.0 0 0,0 255.90861565940332,21.468224744590827 L 265.2897612637856,80.73030458616722 A 222.0,222.0 0 0,1 379.57489918993207,92.75175412343737 Z" fill="#B8C4E8" stroke="none" /><path d="M 255.90861565940332,21.468224744590827 A 282.0,282.0 0 0,0 122.54985344531525,80.83009903793607 L 160.30520377609923,127.46199285965182 A 222.0,222.0 0 0,1 265.2897612637856,80.73030458616722 Z" fill="#C4B8E8" stroke="none" /><path d="M 122.54985344531525,80.83009903793607 A 282.0,282.0 0 0,0 36.73871469733939,198.91837129927546 L 92.7517541234374,220.42510081006793 A 222.0,222.0 0 0,1 160.30520377609923,127.46199285965182 Z" fill="#D8B8E8" stroke="none" /><line stroke="#BBBBBB" stroke-width="0.5" x1="28.930658941116462" x2="35.65933052768452" y1="222.24775027111633" y2="224.1777706544574" /><line stroke="#BBBBBB" stroke-width="0.8" x1="23.185604546494858" x2="33.001717860448935" y1="246.16887081148607" y2="248.07777610185892" /><line stroke="#BBBBBB" stroke-width="0.5" x1="19.547274846376297" x2="26.50886731472866" y1="270.4996787491048" y2="271.2319562269639" /><line stroke="#BBBBBB" stroke-width="0.8" x1="18.04335972666229" x2="28.04182214770259" y1="295.0550019442238" y2="295.2303564852088" /><line stroke="#BBBBBB" stroke-width="0.5" x1="18.68530488950256" x2="25.66829377522413" y1="319.64795956041877" y2="319.1602442521814" /><line stroke="#BBBBBB" stroke-width="0.5" x1="26.370939591456874" x2="33.16315031081791" y1="368.19924706283683" y2="366.506357951348" /><line stroke="#BBBBBB" stroke-width="0.8" x1="33.35613680977599" x2="42.81159295127327" y1="391.78807233509747" y2="388.5331761530018" /><line stroke="#BBBBBB" stroke-width="0.5" x1="42.37065483093926" x2="48.76570949825637" y1="414.67833495373463" y2="411.83170961800363" /><line stroke="#BBBBBB" stroke-width="0.8" x1="53.34588772969087" x2="62.092487455588355" y1="436.695826198702" y2="431.8484564753438" /><line stroke="#BBBBBB" stroke-width="0.5" x1="66.19830735664462" x2="72.00189547190521" y1="457.6729796671008" y2="453.75911137749193" /><line stroke="#BBBBBB" stroke-width="0.5" x1="97.12990600395327" x2="102.16568847903244" y1="495.87681067965946" y2="491.0146203436396" /><line stroke="#BBBBBB" stroke-width="0.8" x1="114.9736768815923" x2="121.53489401345072" y1="512.81273400171" y2="505.26618315058556" /><line stroke="#BBBBBB" stroke-width="0.5" x1="134.22560980011102" x2="138.34057693273238" y1="528.1290239181656" y2="522.4662467287076" /><line stroke="#BBBBBB" stroke-width="0.8" x1="154.73918592536435" x2="159.89027862304647" y1="541.709114214533" y2="533.1378690296204" /><line stroke="#BBBBBB" stroke-width="0.5" x1="176.35828455660328" x2="179.42740515271598" y1="553.4496522037742" y2="547.1583487802764" /><line stroke="#BBBBBB" stroke-width="0.5" x1="222.2477502711163" x2="224.1777706544574" y1="571.0693410588835" y2="564.3406694723155" /><line stroke="#BBBBBB" stroke-width="0.8" x1="246.16887081148593" x2="248.07777610185877" y1="576.8143954535051" y2="566.9982821395511" /><line stroke="#BBBBBB" stroke-width="0.5" x1="270.49967874910465" x2="271.2319562269638" y1="580.4527251536236" y2="573.4911326852713" /><line stroke="#BBBBBB" stroke-width="0.8" x1="295.05500194422393" x2="295.2303564852089" y1="581.9566402733377" y2="571.9581778522975" /><line stroke="#BBBBBB" stroke-width="0.5" x1="319.6479595604189" x2="319.16024425218154" y1="581.3146951104975" y2="574.3317062247759" /><line stroke="#BBBBBB" stroke-width="0.5" x1="368.19924706283683" x2="366.5063579513479" y1="573.6290604085432" y2="566.8368496891821" /><line stroke="#BBBBBB" stroke-width="0.8" x1="391.78807233509747" x2="388.5331761530018" y1="566.643863190224" y2="557.1884070487267" /><line stroke="#BBBBBB" stroke-width="0.5" x1="414.67833495373463" x2="411.83170961800363" y1="557.6293451690608" y2="551.2342905017437" /><line stroke="#BBBBBB" stroke-width="0.8" x1="436.695826198702" x2="431.84845647534377" y1="546.6541122703092" y2="537.9075125444117" /><line stroke="#BBBBBB" stroke-width="0.5" x1="457.67297966710066" x2="453.75911137749176" y1="533.8016926433554" y2="527.9981045280949" /><line stroke="#BBBBBB" stroke-width="0.5" x1="495.87681067965957" x2="491.01462034363965" y1="502.87009399604665" y2="497.8343115209675" /><line stroke="#BBBBBB" stroke-width="0.8" x1="512.8127340017102" x2="505.2661831505856" y1="485.0263231184076" y2="478.4651059865492" /><line stroke="#BBBBBB" stroke-width="0.5" x1="528.1290239181656" x2="522.4662467287076" y1="465.774390199889" y2="461.65942306726765" /><line stroke="#BBBBBB" stroke-width="0.8" x1="541.709114214533" x2="533.1378690296204" y1="445.2608140746357" y2="440.10972137695353" /><line stroke="#BBBBBB" stroke-width="0.5" x1="553.4496522037742" x2="547.1583487802764" y1="423.6417154433967" y2="420.57259484728405" /><line stroke="#BBBBBB" stroke-width="0.5" x1="571.0693410588835" x2="564.3406694723155" y1="377.7522497288837" y2="375.8222293455426" /><line stroke="#BBBBBB" stroke-width="0.8" x1="576.8143954535051" x2="566.9982821395511" y1="353.83112918851407" y2="351.9222238981412" /><line stroke="#BBBBBB" stroke-width="0.5" x1="580.4527251536236" x2="573.4911326852713" y1="329.50032125089535" y2="328.76804377303625" /><line stroke="#BBBBBB" stroke-width="0.8" x1="581.9566402733377" x2="571.9581778522975" y1="304.94499805577607" y2="304.7696435147911" /><line stroke="#BBBBBB" stroke-width="0.5" x1="581.3146951104975" x2="574.3317062247759" y1="280.3520404395812" y2="280.8397557478185" /><line stroke="#BBBBBB" stroke-width="0.5" x1="573.6290604085432" x2="566.8368496891821" y1="231.8007529371632" y2="233.49364204865205" /><line stroke="#BBBBBB" stroke-width="0.8" x1="566.643863190224" x2="557.1884070487267" y1="208.21192766490253" y2="211.46682384699818" /><line stroke="#BBBBBB" stroke-width="0.5" x1="557.6293451690608" x2="551.2342905017437" y1="185.32166504626534" y2="188.16829038199634" /><line stroke="#BBBBBB" stroke-width="0.8" x1="546.654112270309" x2="537.9075125444116" y1="163.30417380129794" y2="168.15154352465618" /><line stroke="#BBBBBB" stroke-width="0.5" x1="533.8016926433554" x2="527.9981045280948" y1="142.32702033289922" y2="146.24088862250812" /><line stroke="#BBBBBB" stroke-width="0.5" x1="502.8700939960467" x2="497.8343115209675" y1="104.12318932034051" y2="108.98537965636041" /><line stroke="#BBBBBB" stroke-width="0.8" x1="485.0263231184077" x2="478.46510598654925" y1="87.18726599828992" y2="94.73381684941441" /><line stroke="#BBBBBB" stroke-width="0.5" x1="465.774390199889" x2="461.65942306726765" y1="71.87097608183447" y2="77.53375327129248" /><line stroke="#BBBBBB" stroke-width="0.8" x1="445.2608140746357" x2="440.10972137695353" y1="58.290885785467054" y2="66.86213097037955" /><line stroke="#BBBBBB" stroke-width="0.5" x1="423.64171544339666" x2="420.572594847284" y1="46.550347796225765" y2="52.8416512197237" /><line stroke="#BBBBBB" stroke-width="0.5" x1="377.75224972888367" x2="375.8222293455426" y1="28.930658941116462" y2="35.65933052768452" /><line stroke="#BBBBBB" stroke-width="0.8" x1="353.83112918851396" x2="351.9222238981411" y1="23.185604546494858" y2="33.001717860448935" /><line stroke="#BBBBBB" stroke-width="0.5" x1="329.50032125089524" x2="328.76804377303614" y1="19.547274846376297" y2="26.50886731472866" /><line stroke="#BBBBBB" stroke-width="0.8" x1="304.9449980557761" x2="304.7696435147912" y1="18.04335972666229" y2="28.04182214770259" /><line stroke="#BBBBBB" stroke-width="0.5" x1="280.3520404395812" x2="280.8397557478185" y1="18.68530488950256" y2="25.66829377522413" /><line stroke="#BBBBBB" stroke-width="0.5" x1="231.80075293716322" x2="233.49364204865208" y1="26.370939591456874" y2="33.163150310817855" /><line stroke="#BBBBBB" stroke-width="0.8" x1="208.2119276649025" x2="211.46682384699818" y1="33.35613680977599" y2="42.81159295127327" /><line stroke="#BBBBBB" stroke-width="0.5" x1="185.32166504626537" x2="188.16829038199637" y1="42.37065483093926" y2="48.76570949825637" /><line stroke="#BBBBBB" stroke-width="0.8" x1="163.30417380129796" x2="168.1515435246562" y1="53.3458877296909" y2="62.09248745558838" /><line stroke="#BBBBBB" stroke-width="0.5" x1="142.3270203328992" x2="146.24088862250807" y1="66.19830735664462" y2="72.00189547190521" /><line stroke="#BBBBBB" stroke-width="0.5" x1="104.12318932034051" x2="108.98537965636041" y1="97.1299060039533" y2="102.16568847903247" /><line stroke="#BBBBBB" stroke-width="0.8" x1="87.18726599828997" x2="94.73381684941444" y1="114.97367688159233" y2="121.53489401345075" /><line stroke="#BBBBBB" stroke-width="0.5" x1="71.8709760818345" x2="77.53375327129251" y1="134.22560980011093" y2="138.3405769327323" /><line stroke="#BBBBBB" stroke-width="0.8" x1="58.290885785467054" x2="66.86213097037955" y1="154.73918592536435" y2="159.89027862304647" /><line stroke="#BBBBBB" stroke-width="0.5" x1="46.550347796225765" x2="52.8416512197237" y1="176.3582845566033" y2="179.427405152716" /><line stroke="#BBBBBB" stroke-width="0.5" x1="36.73871469733939" x2="92.7517541234374" y1="198.91837129927546" y2="220.42510081006793" /><text dominant-baseline="central" fill="#555555" font-family="&quot;Symbola&quot;, &quot;Noto Sans Symbols&quot;, &quot;Apple Symbols&quot;, &quot;Segoe UI Symbol&quot;, serif" font-size="20px" text-anchor="middle" x="49.38267113931499" y="273.6380107970724">♈</text><line stroke="#BBBBBB" stroke-width="0.5" x1="21.46822474459077" x2="80.7303045861672" y1="344.0913843405966" y2="334.71023873621436" /><text dominant-baseline="central" fill="#555555" font-family="&quot;Symbola&quot;, &quot;Noto Sans Symbols&quot;, &quot;Apple Symbols&quot;, &quot;Segoe UI Symbol&quot;, serif" font-size="20px" text-anchor="middle" x="69.778031976584" y="402.4785120863161">♉</text><line stroke="#BBBBBB" stroke-width="0.5" x1="80.83009903793604" x2="127.46199285965179" y1="477.4501465546847" y2="439.69479622390077" /><text dominant-baseline="central" fill="#555555" font-family="&quot;Symbola&quot;, &quot;Noto Sans Symbols&quot;, &quot;Apple Symbols&quot;, &quot;Segoe UI Symbol&quot;, serif" font-size="20px" text-anchor="middle" x="151.86118322563112" y="503.8599788204884">♊</text><line stroke="#BBBBBB" stroke-width="0.5" x1="198.91837129927546" x2="220.42510081006793" y1="563.2612853026606" y2="507.2482458765626" /><text dominant-baseline="central" fill="#555555" font-family="&quot;Symbola&quot;, &quot;Noto Sans Symbols&quot;, &quot;Apple Symbols&quot;, &quot;Segoe UI Symbol&quot;, serif" font-size="20px" text-anchor="middle" x="273.63801079707224" y="550.617328860685">♋</text><line stroke="#BBBBBB" stroke-width="0.5" x1="344.09138434059673" x2="334.7102387362144" y1="578.5317752554092" y2="519.2696954138328" /><text dominant-baseline="central" fill="#555555" font-family="&quot;Symbola&quot;, &quot;Noto Sans Symbols&quot;, &quot;Apple Symbols&quot;, &quot;Segoe UI Symbol&quot;, serif" font-size="20px" text-anchor="middle" x="402.4785120863161" y="530.221968023416">♌</text><line stroke="#BBBBBB" stroke-width="0.5" x1="477.4501465546846" x2="439.69479622390065" y1="519.169900962064" y2="472.53800714034827" /><text dominant-baseline="central" fill="#555555" font-family="&quot;Symbola&quot;, &quot;Noto Sans Symbols&quot;, &quot;Apple Symbols&quot;, &quot;Segoe UI Symbol&quot;, serif" font-size="20px" text-anchor="middle" x="503.8599788204884" y="448.1388167743689">♍</text><line stroke="#BBBBBB" stroke-width="0.5" x1="563.2612853026606" x2="507.2482458765626" y1="401.08162870072454" y2="379.5748991899321" /><text dominant-baseline="central" fill="#555555" font-family="&quot;Symbola&quot;, &quot;Noto Sans Symbols&quot;, &quot;Apple Symbols&quot;, &quot;Segoe UI Symbol&quot;, serif" font-size="20px" text-anchor="middle" x="550.617328860685" y="326.36198920292776">♎</text><line stroke="#BBBBBB" stroke-width="0.5" x1="578.5317752554092" x2="519.2696954138328" y1="255.90861565940332" y2="265.2897612637856" /><text dominant-baseline="central" fill="#555555" font-family="&quot;Symbola&quot;, &quot;Noto Sans Symbols&quot;, &quot;Apple Symbols&quot;, &quot;Segoe UI Symbol&quot;, serif" font-size="20px" text-anchor="middle" x="530.221968023416" y="197.52148791368393">♏</text><line stroke="#BBBBBB" stroke-width="0.5" x1="519.1699009620639" x2="472.5380071403482" y1="122.54985344531528" y2="160.30520377609926" /><text dominant-baseline="central" fill="#555555" font-family="&quot;Symbola&quot;, &quot;Noto Sans Symbols&quot;, &quot;Apple Symbols&quot;, &quot;Segoe UI Symbol&quot;, serif" font-size="20px" text-anchor="middle" x="448.13881677436893" y="96.14002117951165">♐</text><line stroke="#BBBBBB" stroke-width="0.5" x1="401.08162870072454" x2="379.57489918993207" y1="36.73871469733939" y2="92.75175412343737" /><text dominant-baseline="central" fill="#555555" font-family="&quot;Symbola&quot;, &quot;Noto Sans Symbols&quot;, &quot;Apple Symbols&quot;, &quot;Segoe UI Symbol&quot;, serif" font-size="20px" text-anchor="middle" x="326.36198920292765" y="49.38267113931499">♑</text><line stroke="#BBBBBB" stroke-width="0.5" x1="255.90861565940332" x2="265.2897612637856" y1="21.468224744590827" y2="80.73030458616722" /><text dominant-baseline="central" fill="#555555" font-family="&quot;Symbola&quot;, &quot;Noto Sans Symbols&quot;, &quot;Apple Symbols&quot;, &quot;Segoe UI Symbol&quot;, serif" font-size="20px" text-anchor="middle" x="197.52148791368393" y="69.778031976584">♒</text><line stroke="#BBBBBB" stroke-width="0.5" x1="122.54985344531525" x2="160.30520377609923" y1="80.83009903793607" y2="127.46199285965182" /><text dominant-baseline="central" fill="#555555" font-family="&quot;Symbola&quot;, &quot;Noto Sans Symbols&quot;, &quot;Apple Symbols&quot;, &quot;Segoe UI Symbol&quot;, serif" font-size="20px" text-anchor="middle" x="96.14002117951168" y="151.86118322563104">♓</text><path d="M 78.0,300.0 A 222.0,222.0 0 0,0 122.6680406129401,433.5566403438861 L 213.73039813602492,364.9735007078365 A 108.0,108.0 0 0,1 192.0,300.0 Z" fill="#F5F5F5" stroke="none" /><path d="M 122.6680406129401,433.5566403438861 A 222.0,222.0 0 0,0 187.14563040295974,491.1750278222934 L 245.09787425008852,393.00406758922384 A 108.0,108.0 0 0,1 213.73039813602492,364.9735007078365 Z" fill="#FFFFFF" stroke="none" /><path d="M 187.14563040295974,491.1750278222934 A 222.0,222.0 0 0,0 255.6931992324591,517.5336925759902 L 278.44534016714226,405.827201793725 A 108.0,108.0 0 0,1 245.09787425008852,393.00406758922384 Z" fill="#F5F5F5" stroke="none" /><path d="M 255.6931992324591,517.5336925759902 A 222.0,222.0 0 0,0 335.71583136596354,519.1081454210182 L 317.3752693131715,406.5931518264413 A 108.0,108.0 0 0,1 278.44534016714226,405.827201793725 Z" fill="#FFFFFF" stroke="none" /><path d="M 335.71583136596354,519.1081454210182 A 222.0,222.0 0 0,0 438.26511524974524,473.68580225503365 L 367.2641101214977,384.495795691638 A 108.0,108.0 0 0,1 317.3752693131715,406.5931518264413 Z" fill="#F5F5F5" stroke="none" /><path d="M 438.26511524974524,473.68580225503365 A 222.0,222.0 0 0,0 522.0,300.0 L 408.0,300.0 A 108.0,108.0 0 0,1 367.2641101214977,384.495795691638 Z" fill="#FFFFFF" stroke="none" /><path d="M 522.0,300.0 A 222.0,222.0 0 0,0 477.3319593870599,166.4433596561139 L 386.2696018639751,235.02649929216352 A 108.0,108.0 0 0,1 408.0,300.0 Z" fill="#F5F5F5" stroke="none" /><path d="M 477.3319593870599,166.4433596561139 A 222.0,222.0 0 0,0 412.8543695970402,108.82497217770663 L 354.9021257499115,206.9959324107762 A 108.0,108.0 0 0,1 386.2696018639751,235.02649929216352 Z" fill="#FFFFFF" stroke="none" /><path d="M 412.8543695970402,108.82497217770663 A 222.0,222.0 0 0,0 344.30680076754106,82.46630742400978 L 321.55465983285785,194.17279820627505 A 108.0,108.0 0 0,1 354.9021257499115,206.9959324107762 Z" fill="#F5F5F5" stroke="none" /><path d="M 344.30680076754106,82.46630742400978 A 222.0,222.0 0 0,0 264.28416863403635,80.89185457898182 L 282.6247306868285,193.40684817355873 A 108.0,108.0 0 0,1 321.55465983285785,194.17279820627505 Z" fill="#FFFFFF" stroke="none" /><path d="M 264.28416863403635,80.89185457898182 A 222.0,222.0 0 0,0 161.7348847502547,126.31419774496635 L 232.7358898785023,215.504204308362 A 108.0,108.0 0 0,1 282.6247306868285,193.40684817355873 Z" fill="#F5F5F5" stroke="none" /><path d="M 161.7348847502547,126.31419774496635 A 222.0,222.0 0 0,0 78.0,300.0 L 192.0,300.0 A 108.0,108.0 0 0,1 232.7358898785023,215.504204308362 Z" fill="#FFFFFF" stroke="none" /><line stroke="#CCCCCC" stroke-dasharray="1.0" stroke-width="0.8" x1="78.0" x2="192.0" y1="300.0" y2="300.0" /><text dominant-baseline="central" fill="#AAAAAA" font-family="&quot;Arial&quot;, &quot;Helvetica&quot;, sans-serif" font-size="11px" text-anchor="middle" x="174.8158108344855" y="341.86787292152155">1</text><line stroke="#CCCCCC" stroke-dasharray="1.0" stroke-width="0.8" x1="122.6680406129401" x2="213.73039813602492" y1="433.5566403438861" y2="364.9735007078365" /><text dominant-baseline="central" fill="#AAAAAA" font-family="&quot;Arial&quot;, &quot;Helvetica&quot;, sans-serif" font-size="11px" text-anchor="middle" x="212.04421193010253" y="398.42651748895355">2</text><line stroke="#CCCCCC" stroke-dasharray="1.0" stroke-width="0.8" x1="187.14563040295974" x2="245.09787425008852" y1="491.1750278222934" y2="393.00406758922384" /><text dominant-baseline="central" fill="#AAAAAA" font-family="&quot;Arial&quot;, &quot;Helvetica&quot;, sans-serif" font-size="11px" text-anchor="middle" x="252.62381918701388" y="423.20510335036954">3</text><line stroke="#CCCCCC" stroke-dasharray="1.0" stroke-width="0.8" x1="255.6931992324591" x2="278.44534016714226" y1="517.5336925759902" y2="405.827201793725" /><text dominant-baseline="central" fill="#AAAAAA" font-family="&quot;Arial&quot;, &quot;Helvetica&quot;, sans-serif" font-size="11px" text-anchor="middle" x="297.4033900705052" y="431.9744581988274">4</text><line stroke="#CCCCCC" stroke-dasharray="1.0" stroke-width="0.8" x1="335.71583136596354" x2="317.3752693131715" y1="519.1081454210182" y2="406.5931518264413" /><text dominant-baseline="central" fill="#AAAAAA" font-family="&quot;Arial&quot;, &quot;Helvetica&quot;, sans-serif" font-size="11px" text-anchor="middle" x="353.45779001794693" y="420.69078128174124">5</text><line stroke="#CCCCCC" stroke-dasharray="1.0" stroke-width="0.8" x1="438.26511524974524" x2="367.2641101214977" y1="473.68580225503365" y2="384.495795691638" /><text dominant-baseline="central" fill="#AAAAAA" font-family="&quot;Arial&quot;, &quot;Helvetica&quot;, sans-serif" font-size="11px" text-anchor="middle" x="418.9032024371119" y="357.3238907454753">6</text><line stroke="#CCCCCC" stroke-dasharray="1.0" stroke-width="0.8" x1="522.0" x2="408.0" y1="300.0" y2="300.0" /><text dominant-baseline="central" fill="#AAAAAA" font-family="&quot;Arial&quot;, &quot;Helvetica&quot;, sans-serif" font-size="11px" text-anchor="middle" x="425.1841891655145" y="258.13212707847845">7</text><line stroke="#CCCCCC" stroke-dasharray="1.0" stroke-width="0.8" x1="477.3319593870599" x2="386.2696018639751" y1="166.4433596561139" y2="235.02649929216352" /><text dominant-baseline="central" fill="#AAAAAA" font-family="&quot;Arial&quot;, &quot;Helvetica&quot;, sans-serif" font-size="11px" text-anchor="middle" x="387.9557880698976" y="201.57348251104656">8</text><line stroke="#CCCCCC" stroke-dasharray="1.0" stroke-width="0.8" x1="412.8543695970402" x2="354.9021257499115" y1="108.82497217770663" y2="206.9959324107762" /><text dominant-baseline="central" fill="#AAAAAA" font-family="&quot;Arial&quot;, &quot;Helvetica&quot;, sans-serif" font-size="11px" text-anchor="middle" x="347.37618081298604" y="176.7948966496304">9</text><line stroke="#CCCCCC" stroke-dasharray="1.0" stroke-width="0.8" x1="344.30680076754106" x2="321.55465983285785" y1="82.46630742400978" y2="194.17279820627505" /><text dominant-baseline="central" fill="#AAAAAA" font-family="&quot;Arial&quot;, &quot;Helvetica&quot;, sans-serif" font-size="11px" text-anchor="middle" x="302.5966099294948" y="168.02554180117258">10</text><line stroke="#CCCCCC" stroke-dasharray="1.0" stroke-width="0.8" x1="264.28416863403635" x2="282.6247306868285" y1="80.89185457898182" y2="193.40684817355873" /><text dominant-baseline="central" fill="#AAAAAA" font-family="&quot;Arial&quot;, &quot;Helvetica&quot;, sans-serif" font-size="11px" text-anchor="middle" x="246.54220998205304" y="179.30921871825882">11</text><line stroke="#CCCCCC" stroke-dasharray="1.0" stroke-width="0.8" x1="161.7348847502547" x2="232.7358898785023" y1="126.31419774496635" y2="215.504204308362" /><text dominant-baseline="central" fill="#AAAAAA" font-family="&quot;Arial&quot;, &quot;Helvetica&quot;, sans-serif" font-size="11px" text-anchor="middle" x="181.0967975628881" y="242.67610925452473">12</text><circle cx="300" cy="300" fill="#FFFFFF" r="108.0" stroke="#BBBBBB" /><g transform="translate(300, 300)"><circle cx="0" cy="0" fill="#2C3E50" opacity="0.95" r="40" stroke="none" /><path d="M 0 -40 A 40 40 0 0 1 0 40 A 16.111274080767135 40 0 0 0 0 -40 Z" fill="#F8F9FA" opacity="0.95" stroke="none" /><circle cx="0" cy="0" fill="none" opacity="0.95" r="40" stroke="#2C3E50" stroke-width="2" /></g><line opacity="0.6" stroke="#999999" stroke-dasharray="2,2" stroke-width="0.5" x1="323.4531928111799" x2="356.4733998680965" y1="121.53446341951167" y2="129.088458238368" /><text dominant-baseline="central" fill="#222222" font-family="&quot;Symbola&quot;, &quot;Noto Sans Symbols&quot;, &quot;Apple Symbols&quot;, &quot;Segoe UI Symbol&quot;, serif" font-size="32px" text-anchor="middle" x="356.4733998680965" y="129.088458238368">♂</text><text dominant-baseline="central" fill="#444444" font-family="&quot;Arial&quot;, &quot;Helvetica&quot;, sans-serif" font-size="10px" text-anchor="middle" x="348.4416274424117" y="153.39587751113342">13°</text><text dominant-baseline="central" fill="#444444" font-family="&quot;Symbola&quot;, &quot;Noto Sans Symbols&quot;, &quot;Apple Symbols&quot;, &quot;Segoe UI Symbol&quot;, serif" font-size="10px" text-anchor="middle" x="344.4257412295692" y="165.54958714751615">♑</text><text dominant-baseline="central" fill="#444444" font-family="&quot;Arial&quot;, &quot;Helvetica&quot;, sans-serif" font-size="10px" text-anchor="middle" x="340.40985501672685" y="177.70329678389885">31'</text><line opacity="0.6" stroke="#999999" stroke-dasharray="2,2" stroke-width="0.5" x1="297.1192688215689" x2="263.4516280430323" y1="120.02305317658704" y2="123.74956310041347" /><text dominant-baseline="central" fill="#222222" font-family="&quot;Symbola&quot;, &quot;Noto Sans Symbols&quot;, &quot;Apple Symbols&quot;, &quot;Segoe UI Symbol&quot;, serif" font-size="32px" text-anchor="middle" x="263.4516280430323" y="123.74956310041347">♅</text><text dominant-baseline="central" fill="#444444" font-family="&quot;Arial&quot;, &quot;Helvetica&quot;, sans-serif" font-size="10px" text-anchor="middle" x="268.6496187213566" y="148.8162919039102">21°</text><text dominant-baseline="central" fill="#444444" font-family="&quot;Symbola&quot;, &quot;Noto Sans Symbols&quot;, &quot;Apple Symbols&quot;, &quot;Segoe UI Symbol&quot;, serif" font-size="10px" text-anchor="middle" x="271.2486140605188" y="161.34965630565858">♑</text><text dominant-baseline="central" fill="#444444" font-family="&quot;Arial&quot;, &quot;Helvetica&quot;, sans-serif" font-size="10px" text-anchor="middle" x="273.8476093996809" y="173.88302070740696">55'</text><text dominant-baseline="central" fill="#222222" font-family="&quot;Symbola&quot;, &quot;Noto Sans Symbols&quot;, &quot;Apple Symbols&quot;, &quot;Segoe UI Symbol&quot;, serif" font-size="32px" text-anchor="middle" x="120.02878495036194" y="296.78103222182506">⚸</text><text dominant-baseline="central" fill="#444444" font-family="&quot;Arial&quot;, &quot;Helvetica&quot;, sans-serif" font-size="10px" text-anchor="middle" x="145.6246910907549" y="297.23884097249885">19°</text><text dominant-baseline="central" fill="#444444" font-family="&quot;Symbola&quot;, &quot;Noto Sans Symbols&quot;, &quot;Apple Symbols&quot;, &quot;Segoe UI Symbol&quot;, serif" font-size="10px" text-anchor="middle" x="158.4226441609514" y="297.4677453478357">♈</text><text dominant-baseline="central" fill="#444444" font-family="&quot;Arial&quot;, &quot;Helvetica&quot;, sans-serif" font-size="10px" text-anchor="middle" x="171.22059723114785" y="297.6966497231726">58'</text><text dominant-baseline="central" fill="#222222" font-family="&quot;Symbola&quot;, &quot;Noto Sans Symbols&quot;, &quot;Apple Symbols&quot;, &quot;Segoe UI Symbol&quot;, serif" font-size="32px" text-anchor="middle" x="192.7576467775296" y="155.43486701383733">♄</text><text dominant-baseline="central" fill="#444444" font-family="&quot;Arial&quot;, &quot;Helvetica&quot;, sans-serif" font-size="10px" text-anchor="middle" x="208.00989256916984" y="175.99524148298048">27°</text><text dominant-baseline="central" fill="#444444" font-family="&quot;Symbola&quot;, &quot;Noto Sans Symbols&quot;, &quot;Apple Symbols&quot;, &quot;Segoe UI Symbol&quot;, serif" font-size="10px" text-anchor="middle" x="215.63601546498995" y="186.27542871755205">♒</text><text dominant-baseline="central" fill="#444444" font-family="&quot;Arial&quot;, &quot;Helvetica&quot;, sans-serif" font-size="10px" text-anchor="middle" x="223.26213836081007" y="196.55561595212362">34'</text><line opacity="0.6" stroke="#999999" stroke-dasharray="2,2" stroke-width="0.5" x1="309.204107448674" x2="300.8948240027272" y1="120.23547511793862" y2="120.00222420817488" /><text dominant-baseline="central" fill="#222222" font-family="&quot;Symbola&quot;, &quot;Noto Sans Symbols&quot;, &quot;Apple Symbols&quot;, &quot;Segoe UI Symbol&quot;, serif" font-size="32px" text-anchor="middle" x="300.8948240027272" y="120.00222420817488">☿</text><text dominant-baseline="central" fill="#444444" font-family="&quot;Arial&quot;, &quot;Helvetica&quot;, sans-serif" font-size="10px" text-anchor="middle" x="300.76756014456157" y="145.60190787634556">18°</text><text dominant-baseline="central" fill="#444444" font-family="&quot;Symbola&quot;, &quot;Noto Sans Symbols&quot;, &quot;Apple Symbols&quot;, &quot;Segoe UI Symbol&quot;, serif" font-size="10px" text-anchor="middle" x="300.70392821547875" y="158.40174971043092">♑</text><text dominant-baseline="central" fill="#444444" font-family="&quot;Arial&quot;, &quot;Helvetica&quot;, sans-serif" font-size="10px" text-anchor="middle" x="300.64029628639594" y="171.20159154451625">04'</text><line opacity="0.6" stroke="#999999" stroke-dasharray="2,2" stroke-width="0.5" x1="301.02110731525465" x2="282.0750311680982" y1="120.00289630149399" y2="120.8947362795405" /><text dominant-baseline="central" fill="#222222" font-family="&quot;Symbola&quot;, &quot;Noto Sans Symbols&quot;, &quot;Apple Symbols&quot;, &quot;Segoe UI Symbol&quot;, serif" font-size="32px" text-anchor="middle" x="282.0750311680982" y="120.8947362795405">♆</text><text dominant-baseline="central" fill="#444444" font-family="&quot;Arial&quot;, &quot;Helvetica&quot;, sans-serif" font-size="10px" text-anchor="middle" x="284.6243600686353" y="146.3674848975614">20°</text><text dominant-baseline="central" fill="#444444" font-family="&quot;Symbola&quot;, &quot;Noto Sans Symbols&quot;, &quot;Apple Symbols&quot;, &quot;Segoe UI Symbol&quot;, serif" font-size="10px" text-anchor="middle" x="285.8990245189039" y="159.10385920657185">♑</text><text dominant-baseline="central" fill="#444444" font-family="&quot;Arial&quot;, &quot;Helvetica&quot;, sans-serif" font-size="10px" text-anchor="middle" x="287.1736889691725" y="171.8402335155823">40'</text><line opacity="0.6" stroke="#999999" stroke-dasharray="2,2" stroke-width="0.5" x1="445.16714079188137" x2="446.1036779460263" y1="193.57396355068886" y2="194.8633494415776" /><text dominant-baseline="central" fill="#222222" font-family="&quot;Symbola&quot;, &quot;Noto Sans Symbols&quot;, &quot;Apple Symbols&quot;, &quot;Segoe UI Symbol&quot;, serif" font-size="32px" text-anchor="middle" x="446.1036779460263" y="194.8633494415776">♇</text><text dominant-baseline="central" fill="#444444" font-family="&quot;Arial&quot;, &quot;Helvetica&quot;, sans-serif" font-size="10px" text-anchor="middle" x="425.3244881937026" y="209.8161175209977">27°</text><text dominant-baseline="central" fill="#444444" font-family="&quot;Symbola&quot;, &quot;Noto Sans Symbols&quot;, &quot;Apple Symbols&quot;, &quot;Segoe UI Symbol&quot;, serif" font-size="10px" text-anchor="middle" x="414.93489331754074" y="217.29250156070773">♏</text><text dominant-baseline="central" fill="#444444" font-family="&quot;Arial&quot;, &quot;Helvetica&quot;, sans-serif" font-size="10px" text-anchor="middle" x="404.54529844137886" y="224.76888560041778">15'</text><line opacity="0.6" stroke="#999999" stroke-dasharray="2,2" stroke-width="0.5" x1="435.36919049306323" x2="434.31353419517774" y1="181.3611266689844" y2="180.1673060805157" /><text dominant-baseline="central" fill="#222222" font-family="&quot;Symbola&quot;, &quot;Noto Sans Symbols&quot;, &quot;Apple Symbols&quot;, &quot;Segoe UI Symbol&quot;, serif" font-size="32px" text-anchor="middle" x="434.31353419517774" y="180.1673060805157">☊</text><text dominant-baseline="central" fill="#444444" font-family="&quot;Arial&quot;, &quot;Helvetica&quot;, sans-serif" font-size="10px" text-anchor="middle" x="415.21116488741916" y="197.21017810462013">2°</text><text dominant-baseline="central" fill="#444444" font-family="&quot;Symbola&quot;, &quot;Noto Sans Symbols&quot;, &quot;Apple Symbols&quot;, &quot;Segoe UI Symbol&quot;, serif" font-size="10px" text-anchor="middle" x="405.65998023353984" y="205.73161411667235">♐</text><text dominant-baseline="central" fill="#444444" font-family="&quot;Arial&quot;, &quot;Helvetica&quot;, sans-serif" font-size="10px" text-anchor="middle" x="396.1087955796605" y="214.25305012872454">14'</text><text dominant-baseline="central" fill="#E74C3C" font-family="&quot;Symbola&quot;, &quot;Noto Sans Symbols&quot;, &quot;Apple Symbols&quot;, &quot;Segoe UI Symbol&quot;, serif" font-size="32px" text-anchor="middle" x="433.9639249974137" y="420.2234037086262">⚷</text><text dominant-baseline="central" fill="#444444" font-family="&quot;Arial&quot;, &quot;Helvetica&quot;, sans-serif" font-size="10px" text-anchor="middle" x="414.9112778866704" y="403.1249640700661">9°</text><text dominant-baseline="central" fill="#444444" font-family="&quot;Symbola&quot;, &quot;Noto Sans Symbols&quot;, &quot;Apple Symbols&quot;, &quot;Segoe UI Symbol&quot;, serif" font-size="10px" text-anchor="middle" x="405.3849543312988" y="394.575744250786">♍</text><text dominant-baseline="central" fill="#444444" font-family="&quot;Arial&quot;, &quot;Helvetica&quot;, sans-serif" font-size="10px" text-anchor="middle" x="395.85863077592717" y="386.0265244315059">05'</text><line opacity="0.6" stroke="#999999" stroke-dasharray="2,2" stroke-width="0.5" x1="470.0220307362242" x2="472.68349322776953" y1="240.90254604189434" y2="249.20225234663582" /><text dominant-baseline="central" fill="#222222" font-family="&quot;Symbola&quot;, &quot;Noto Sans Symbols&quot;, &quot;Apple Symbols&quot;, &quot;Segoe UI Symbol&quot;, serif" font-size="32px" text-anchor="middle" x="472.68349322776953" y="249.20225234663582">☽</text><text dominant-baseline="central" fill="#444444" font-family="&quot;Arial&quot;, &quot;Helvetica&quot;, sans-serif" font-size="10px" text-anchor="middle" x="448.1240630798201" y="256.42682090178096">10°</text><text dominant-baseline="central" fill="#444444" font-family="&quot;Symbola&quot;, &quot;Noto Sans Symbols&quot;, &quot;Apple Symbols&quot;, &quot;Segoe UI Symbol&quot;, serif" font-size="10px" text-anchor="middle" x="435.8443480058454" y="260.0391051793535">♏</text><text dominant-baseline="central" fill="#444444" font-family="&quot;Arial&quot;, &quot;Helvetica&quot;, sans-serif" font-size="10px" text-anchor="middle" x="423.5646329318707" y="263.65138945692604">10'</text><line opacity="0.6" stroke="#999999" stroke-dasharray="2,2" stroke-width="0.5" x1="469.5519185447165" x2="466.42770448403155" y1="239.56700472584686" y2="231.430187544548" /><text dominant-baseline="central" fill="#222222" font-family="&quot;Symbola&quot;, &quot;Noto Sans Symbols&quot;, &quot;Apple Symbols&quot;, &quot;Segoe UI Symbol&quot;, serif" font-size="32px" text-anchor="middle" x="466.42770448403155" y="231.430187544548">♃</text><text dominant-baseline="central" fill="#444444" font-family="&quot;Arial&quot;, &quot;Helvetica&quot;, sans-serif" font-size="10px" text-anchor="middle" x="442.7579865129693" y="241.18233864932338">10°</text><text dominant-baseline="central" fill="#444444" font-family="&quot;Symbola&quot;, &quot;Noto Sans Symbols&quot;, &quot;Apple Symbols&quot;, &quot;Segoe UI Symbol&quot;, serif" font-size="10px" text-anchor="middle" x="430.92312752743817" y="246.0584142017111">♏</text><text dominant-baseline="central" fill="#444444" font-family="&quot;Arial&quot;, &quot;Helvetica&quot;, sans-serif" font-size="10px" text-anchor="middle" x="419.08826854190704" y="250.9344897540988">37'</text><line opacity="0.6" stroke="#999999" stroke-dasharray="2,2" stroke-width="0.5" x1="314.849547354565" x2="319.70481295832843" y1="120.61357090525345" y2="121.08180543534067" /><text dominant-baseline="central" fill="#222222" font-family="&quot;Symbola&quot;, &quot;Noto Sans Symbols&quot;, &quot;Apple Symbols&quot;, &quot;Segoe UI Symbol&quot;, serif" font-size="32px" text-anchor="middle" x="319.70481295832843" y="121.08180543534067">☉</text><text dominant-baseline="central" fill="#444444" font-family="&quot;Arial&quot;, &quot;Helvetica&quot;, sans-serif" font-size="10px" text-anchor="middle" x="316.90235067092175" y="146.52794866231443">16°</text><text dominant-baseline="central" fill="#444444" font-family="&quot;Symbola&quot;, &quot;Noto Sans Symbols&quot;, &quot;Apple Symbols&quot;, &quot;Segoe UI Symbol&quot;, serif" font-size="10px" text-anchor="middle" x="315.50111952721835" y="159.25102027580132">♑</text><text dominant-baseline="central" fill="#444444" font-family="&quot;Arial&quot;, &quot;Helvetica&quot;, sans-serif" font-size="10px" text-anchor="middle" x="314.099888383515" y="171.9740918892882">16'</text><line opacity="0.6" stroke="#999999" stroke-dasharray="2,2" stroke-width="0.5" x1="322.5094437330764" x2="338.29891185966096" y1="121.41297655532901" y2="124.1216518431961" /><text dominant-baseline="central" fill="#222222" font-family="&quot;Symbola&quot;, &quot;Noto Sans Symbols&quot;, &quot;Apple Symbols&quot;, &quot;Segoe UI Symbol&quot;, serif" font-size="32px" text-anchor="middle" x="338.29891185966096" y="124.1216518431961">♀</text><text dominant-baseline="central" fill="#444444" font-family="&quot;Arial&quot;, &quot;Helvetica&quot;, sans-serif" font-size="10px" text-anchor="middle" x="332.85195550628697" y="149.13546135883044">13°</text><text dominant-baseline="central" fill="#444444" font-family="&quot;Symbola&quot;, &quot;Noto Sans Symbols&quot;, &quot;Apple Symbols&quot;, &quot;Segoe UI Symbol&quot;, serif" font-size="10px" text-anchor="middle" x="330.12847732959995" y="161.64236611664762">♑</text><text dominant-baseline="central" fill="#444444" font-family="&quot;Arial&quot;, &quot;Helvetica&quot;, sans-serif" font-size="10px" text-anchor="middle" x="327.404999152913" y="174.14927087446478">49'</text><text dominant-baseline="central" fill="#E74C3C" font-family="&quot;Symbola&quot;, &quot;Noto Sans Symbols&quot;, &quot;Apple Symbols&quot;, &quot;Segoe UI Symbol&quot;, serif" font-size="32px" text-anchor="middle" x="164.63080950693677" y="418.6388733310156">☋</text><text dominant-baseline="central" fill="#444444" font-family="&quot;Arial&quot;, &quot;Helvetica&quot;, sans-serif" font-size="10px" text-anchor="middle" x="183.88331659928355" y="401.7657891239378">2°</text><text dominant-baseline="central" fill="#444444" font-family="&quot;Symbola&quot;, &quot;Noto Sans Symbols&quot;, &quot;Apple Symbols&quot;, &quot;Segoe UI Symbol&quot;, serif" font-size="10px" text-anchor="middle" x="193.50957014545693" y="393.32924702039895">♊</text><text dominant-baseline="central" fill="#444444" font-family="&quot;Arial&quot;, &quot;Helvetica&quot;, sans-serif" font-size="10px" text-anchor="middle" x="203.13582369163032" y="384.89270491686005">14'</text><text dominant-baseline="central" fill="#222222" font-family="&quot;Symbola&quot;, &quot;Noto Sans Symbols&quot;, &quot;Apple Symbols&quot;, &quot;Segoe UI Symbol&quot;, serif" font-size="32px" text-anchor="middle" x="475.4269381555006" y="340.31611798507106">🜊</text><text dominant-baseline="central" fill="#444444" font-family="&quot;Arial&quot;, &quot;Helvetica&quot;, sans-serif" font-size="10px" text-anchor="middle" x="450.477329173385" y="334.5822700938609">8°</text><text dominant-baseline="central" fill="#444444" font-family="&quot;Symbola&quot;, &quot;Noto Sans Symbols&quot;, &quot;Apple Symbols&quot;, &quot;Segoe UI Symbol&quot;, serif" font-size="10px" text-anchor="middle" x="438.00252468232713" y="331.7153461482559">♎</text><text dominant-baseline="central" fill="#444444" font-family="&quot;Arial&quot;, &quot;Helvetica&quot;, sans-serif" font-size="10px" text-anchor="middle" x="425.52772019126934" y="328.84842220265085">03'</text><line stroke="#555555" stroke-width="2.5" x1="18.0" x2="192.0" y1="299.99999999999994" y2="300.0" /><text dominant-baseline="central" fill="#333333" font-family="&quot;Arial&quot;, &quot;Helvetica&quot;, sans-serif" font-size="12px" font-weight="bold" text-anchor="middle" x="68.0" y="292.0">Asc</text><line stroke="#555555" stroke-width="2.5" x1="356.28161178579546" x2="321.55465983285785" y1="23.673417538607055" y2="194.17279820627505" /><text dominant-baseline="central" fill="#333333" font-family="&quot;Arial&quot;, &quot;Helvetica&quot;, sans-serif" font-size="12px" font-weight="bold" text-anchor="middle" x="354.3026026039168" y="72.66749244310932">MC</text><line stroke="#CCCCCC" stroke-width="1.75" x1="582.0" x2="408.0" y1="300.0" y2="300.0" /><text dominant-baseline="central" fill="#333333" font-family="&quot;Arial&quot;, &quot;Helvetica&quot;, sans-serif" font-size="12px" font-weight="bold" text-anchor="middle" x="532.0" y="308.0">Dsc</text><line stroke="#CCCCCC" stroke-width="1.75" x1="243.71838821420482" x2="278.44534016714226" y1="576.3265824613931" y2="405.827201793725" /><text dominant-baseline="central" fill="#333333" font-family="&quot;Arial&quot;, &quot;Helvetica&quot;, sans-serif" font-size="12px" font-weight="bold" text-anchor="middle" x="245.6973973960834" y="527.3325075568907">IC</text></svg>