<?xml version="1.0" encoding="utf-8" ?>
<svg baseProfile="full" height="600px" version="1.1" viewBox="0 0 600 600" width="600px" xmlns="http://www.w3.org/2000/svg" xmlns:ev="http://www.w3.org/2001/xml-events" xmlns:xlink="http://www.w3.org/1999/xlink"><defs /><rect fill="#FFFFFF" height="600px" width="600px" x="0" y="0" /><circle cx="300" cy="300" fill="none" r="288.0" stroke="#999999" stroke-width="1" /><circle cx="300" cy="300" fill="none" r="108.0" stroke="#999999" stroke-width="1" /><path d="M 343.79291329942555,21.42114088691335 A 282.0,282.0 0 0,0 198.6363458664886,36.84717440106806 L 220.2030807885123,92.83713729445785 A 222.0,222.0 0 0,1 334.4752721718882,80.6932385705488 Z" fill="#EEEEEE" stroke="none" /><path d="M 198.6363458664886,36.84717440106806 A 282.0,282.0 0 0,0 80.64008770049367,122.7847950204247 L 127.31240946634608,160.49015778203645 A 222.0,222.0 0 0,1 220.2030807885123,92.83713729445785 Z" fill="#EEEEEE" stroke="none" /><path d="M 80.64008770049367,122.7847950204247 A 282.0,282.0 0 0,0 21.421140886913292,256.20708670057445 L 80.69323857054877,265.52472782811185 A 222.0,222.0 0 0,1 127.31240946634608,160.49015778203645 Z" fill="#EEEEEE" stroke="none" /><path d="M 21.421140886913292,256.20708670057445 A 282.0,282.0 0 0,0 36.84717440106806,401.3636541335114 L 92.83713729445785,379.7969192114877 A 222.0,222.0 0 0,1 80.69323857054877,265.52472782811185 Z" fill="#EEEEEE" stroke="none" /><path d="M 36.84717440106806,401.3636541335114 A 282.0,282.0 0 0,0 122.78479502042478,519.3599122995064 L 160.49015778203653,472.687590533654 A 222.0,222.0 0 0,1 92.83713729445785,379.7969192114877 Z" fill="#EEEEEE" stroke="none" /><path d="M 122.78479502042478,519.3599122995064 A 282.0,282.0 0 0,0 256.20708670057434,578.5788591130867 L 265.52472782811174,519.3067614294512 A 222.0,222.0 0 0,1 160.49015778203653,472.687590533654 Z" fill="#EEEEEE" stroke="none" /><path d="M 256.20708670057434,578.5788591130867 A 282.0,282.0 0 0,0 401.3636541335114,563.1528255989319 L 379.79691921148765,507.1628627055421 A 222.0,222.0 0 0,1 265.52472782811174,519.3067614294512 Z" fill="#EEEEEE" stroke="none" /><path d="M 401.3636541335114,563.1528255989319 A 282.0,282.0 0 0,0 519.3599122995064,477.2152049795752 L 472.687590533654,439.5098422179635 A 222.0,222.0 0 0,1 379.79691921148765,507.1628627055421 Z" fill="#EEEEEE" stroke="none" /><path d="M 519.3599122995064,477.2152049795752 A 282.0,282.0 0 0,0 578.5788591130867,343.79291329942566 L 519.3067614294512,334.4752721718883 A 222.0,222.0 0 0,1 472.687590533654,439.5098422179635 Z" fill="#EEEEEE" stroke="none" /><path d="M 578.5788591130867,343.79291329942566 A 282.0,282.0 0 0,0 563.1528255989319,198.6363458664886 L 507.1628627055421,220.2030807885123 A 222.0,222.0 0 0,1 519.3067614294512,334.4752721718883 Z" fill="#EEEEEE" stroke="none" /><path d="M 563.1528255989319,198.6363458664886 A 282.0,282.0 0 0,0 477.2152049795753,80.64008770049364 L 439.5098422179635,127.31240946634605 A 222.0,222.0 0 0,1 507.1628627055421,220.2030807885123 Z" fill="#EEEEEE" stroke="none" /><path d="M 477.2152049795753,80.64008770049364 A 282.0,282.0 0 0,0 343.79291329942555,21.42114088691335 L 334.4752721718882,80.6932385705488 A 222.0,222.0 0 0,1 439.5098422179635,127.31240946634605 Z" fill="#EEEEEE" stroke="none" /><line stroke="#BBBBBB" stroke-width="0.5" x1="319.3465206630829" x2="318.866287880666" y1="18.664413665400502" y2="25.64792112760682" /><line stroke="#BBBBBB" stroke-width="0.8" x1="294.7528893227457" x2="294.9389570772583" y1="18.04882013096551" y2="28.04708892064758" /><line stroke="#BBBBBB" stroke-width="0.5" x1="270.1991916629544" x2="270.9389280401151" y1="19.57904532211103" y2="26.53984916163307" /><line stroke="#BBBBBB" stroke-width="0.8" x1="245.8722961488281" x2="247.79171827121007" y1="23.24344330115713" y2="33.05750559544231" /><line stroke="#BBBBBB" stroke-width="0.5" x1="221.95734514421034" x2="223.89457416545335" y1="29.01412578685938" y2="35.74072550136992" /><line stroke="#BBBBBB" stroke-width="0.5" x1="176.08678520177065" x2="179.16264514357067" y1="46.68297491410516" y2="52.97098617510255" /><line stroke="#BBBBBB" stroke-width="0.8" x1="154.48027892251199" x2="159.64055271958603" y1="58.44667094504763" y2="67.01239183352112" /><line stroke="#BBBBBB" stroke-width="0.5" x1="133.9812655878629" x2="138.10229800234856" y1="72.04873366398624" y2="77.70709843119226" /><line stroke="#BBBBBB" stroke-width="0.8" x1="114.74575506694288" x2="121.3150545326541" y1="87.38564316047967" y2="94.92515936046266" /><line stroke="#BBBBBB" stroke-width="0.5" x1="96.92014120953488" x2="101.9611306121351" y1="104.34067629258055" y2="109.1974680158144" /><line stroke="#BBBBBB" stroke-width="0.5" x1="66.0294955771881" x2="71.83727405576852" y1="142.57762846362988" y2="146.48527598403624" /><line stroke="#BBBBBB" stroke-width="0.8" x1="53.199560267793345" x2="61.951348910779416" y1="163.56854120845355" y2="168.40653620106158" /><line stroke="#BBBBBB" stroke-width="0.5" x1="42.24792532694062" x2="48.64602647130735" y1="185.5977797342481" y2="188.43755115928445" /><line stroke="#BBBBBB" stroke-width="0.8" x1="33.2579393093078" x2="42.71687763167273" y1="208.4976882342142" y2="211.74245106278818" /><line stroke="#BBBBBB" stroke-width="0.5" x1="26.29802143679092" x2="33.09204218126774" y1="232.09398457732442" y2="233.7795948892348" /><line stroke="#BBBBBB" stroke-width="0.5" x1="18.664413665400502" x2="25.64792112760682" y1="280.65347933691703" y2="281.133712119334" /><line stroke="#BBBBBB" stroke-width="0.8" x1="18.04882013096551" x2="28.04708892064758" y1="305.2471106772543" y2="305.0610429227417" /><line stroke="#BBBBBB" stroke-width="0.5" x1="19.57904532211097" x2="26.53984916163307" y1="329.8008083370455" y2="329.0610719598848" /><line stroke="#BBBBBB" stroke-width="0.8" x1="23.24344330115713" x2="33.057505595442365" y1="354.127703851172" y2="352.20828172879" /><line stroke="#BBBBBB" stroke-width="0.5" x1="29.014125786859324" x2="35.74072550136992" y1="378.04265485578964" y2="376.1054258345466" /><line stroke="#BBBBBB" stroke-width="0.5" x1="46.68297491410516" x2="52.97098617510255" y1="423.9132147982293" y2="420.83735485642933" /><line stroke="#BBBBBB" stroke-width="0.8" x1="58.446670945047686" x2="67.01239183352118" y1="445.51972107748804" y2="440.35944728041403" /><line stroke="#BBBBBB" stroke-width="0.5" x1="72.04873366398621" x2="77.70709843119224" y1="466.01873441213706" y2="461.89770199765144" /><line stroke="#BBBBBB" stroke-width="0.8" x1="87.38564316047967" x2="94.92515936046266" y1="485.25424493305707" y2="478.68494546734587" /><line stroke="#BBBBBB" stroke-width="0.5" x1="104.34067629258053" x2="109.19746801581437" y1="503.0798587904651" y2="498.0388693878649" /><line stroke="#BBBBBB" stroke-width="0.5" x1="142.57762846362988" x2="146.48527598403624" y1="533.9705044228119" y2="528.1627259442315" /><line stroke="#BBBBBB" stroke-width="0.8" x1="163.56854120845355" x2="168.40653620106158" y1="546.8004397322067" y2="538.0486510892206" /><line stroke="#BBBBBB" stroke-width="0.5" x1="185.59777973424806" x2="188.43755115928445" y1="557.7520746730594" y2="551.3539735286927" /><line stroke="#BBBBBB" stroke-width="0.8" x1="208.4976882342142" x2="211.74245106278815" y1="566.7420606906921" y2="557.2831223683272" /><line stroke="#BBBBBB" stroke-width="0.5" x1="232.0939845773244" x2="233.77959488923477" y1="573.701978563209" y2="566.9079578187323" /><line stroke="#BBBBBB" stroke-width="0.5" x1="280.65347933691714" x2="281.1337121193341" y1="581.3355863345995" y2="574.3520788723931" /><line stroke="#BBBBBB" stroke-width="0.8" x1="305.2471106772544" x2="305.0610429227418" y1="581.9511798690345" y2="571.9529110793524" /><line stroke="#BBBBBB" stroke-width="0.5" x1="329.8008083370456" x2="329.06107195988494" y1="580.420954677889" y2="573.4601508383669" /><line stroke="#BBBBBB" stroke-width="0.8" x1="354.12770385117193" x2="352.2082817287899" y1="576.7565566988428" y2="566.9424944045577" /><line stroke="#BBBBBB" stroke-width="0.5" x1="378.04265485578964" x2="376.1054258345466" y1="570.9858742131407" y2="564.25927449863" /><line stroke="#BBBBBB" stroke-width="0.5" x1="423.9132147982293" x2="420.8373548564293" y1="553.3170250858948" y2="547.0290138248974" /><line stroke="#BBBBBB" stroke-width="0.8" x1="445.519721077488" x2="440.359447280414" y1="541.5533290549524" y2="532.9876081664788" /><line stroke="#BBBBBB" stroke-width="0.5" x1="466.01873441213695" x2="461.8977019976513" y1="527.9512663360139" y2="522.2929015688078" /><line stroke="#BBBBBB" stroke-width="0.8" x1="485.2542449330572" x2="478.684945467346" y1="512.6143568395203" y2="505.07484063953723" /><line stroke="#BBBBBB" stroke-width="0.5" x1="503.0798587904652" x2="498.038869387865" y1="495.6593237074194" y2="490.8025319841855" /><line stroke="#BBBBBB" stroke-width="0.5" x1="533.9705044228119" x2="528.1627259442314" y1="457.4223715363702" y2="453.5147240159638" /><line stroke="#BBBBBB" stroke-width="0.8" x1="546.8004397322067" x2="538.0486510892206" y1="436.43145879154645" y2="431.59346379893844" /><line stroke="#BBBBBB" stroke-width="0.5" x1="557.7520746730594" x2="551.3539735286927" y1="414.40222026575196" y2="411.56244884071555" /><line stroke="#BBBBBB" stroke-width="0.8" x1="566.7420606906921" x2="557.2831223683272" y1="391.5023117657858" y2="388.2575489372119" /><line stroke="#BBBBBB" stroke-width="0.5" x1="573.701978563209" x2="566.9079578187323" y1="367.90601542267564" y2="366.2204051107652" /><line stroke="#BBBBBB" stroke-width="0.5" x1="581.3355863345995" x2="574.3520788723931" y1="319.34652066308286" y2="318.8662878806659" /><line stroke="#BBBBBB" stroke-width="0.8" x1="581.9511798690345" x2="571.9529110793524" y1="294.7528893227457" y2="294.93895707725824" /><line stroke="#BBBBBB" stroke-width="0.5" x1="580.4209546778891" x2="573.4601508383669" y1="270.1991916629544" y2="270.9389280401151" /><line stroke="#BBBBBB" stroke-width="0.8" x1="576.7565566988428" x2="566.9424944045577" y1="245.87229614882807" y2="247.79171827121007" /><line stroke="#BBBBBB" stroke-width="0.5" x1="570.9858742131407" x2="564.25927449863" y1="221.95734514421036" y2="223.89457416545338" /><line stroke="#BBBBBB" stroke-width="0.5" x1="553.3170250858948" x2="547.0290138248974" y1="176.08678520177062" y2="179.16264514357064" /><line stroke="#BBBBBB" stroke-width="0.8" x1="541.5533290549523" x2="532.9876081664788" y1="154.48027892251196" y2="159.640552719586" /><line stroke="#BBBBBB" stroke-width="0.5" x1="527.9512663360138" x2="522.2929015688078" y1="133.98126558786294" y2="138.1022980023486" /><line stroke="#BBBBBB" stroke-width="0.8" x1="512.6143568395203" x2="505.07484063953734" y1="114.7457550669429" y2="121.31505453265413" /><line stroke="#BBBBBB" stroke-width="0.5" x1="495.6593237074194" x2="490.8025319841856" y1="96.92014120953485" y2="101.96113061213507" /><line stroke="#BBBBBB" stroke-width="0.5" x1="457.4223715363702" x2="453.5147240159638" y1="66.02949557718813" y2="71.83727405576855" /><line stroke="#BBBBBB" stroke-width="0.8" x1="436.43145879154645" x2="431.59346379893844" y1="53.19956026779337" y2="61.951348910779444" /><line stroke="#BBBBBB" stroke-width="0.5" x1="414.4022202657519" x2="411.56244884071555" y1="42.24792532694062" y2="48.64602647130732" /><line stroke="#BBBBBB" stroke-width="0.8" x1="391.50231176578575" x2="388.2575489372118" y1="33.2579393093078" y2="42.71687763167273" /><line stroke="#BBBBBB" stroke-width="0.5" x1="367.9060154226755" x2="366.2204051107651" y1="26.29802143679092" y2="33.09204218126774" /><line stroke="#BBBBBB" stroke-width="0.5" x1="343.79291329942555" x2="334.4752721718882" y1="21.42114088691335" y2="80.6932385705488" /><text dominant-baseline="central" fill="#555555" font-family="&quot;Symbola&quot;, &quot;Noto Sans Symbols&quot;, &quot;Apple Symbols&quot;, &quot;Segoe UI Symbol&quot;, serif" font-size="20px" text-anchor="middle" x="273.36949042221454" y="49.41106177720559">♈</text><line stroke="#BBBBBB" stroke-width="0.5" x1="198.6363458664886" x2="220.2030807885123" y1="36.84717440106806" y2="92.83713729445785" /><text dominant-baseline="central" fill="#555555" font-family="&quot;Symbola&quot;, &quot;Noto Sans Symbols&quot;, &quot;Apple Symbols&quot;, &quot;Segoe UI Symbol&quot;, serif" font-size="20px" text-anchor="middle" x="151.6428330785158" y="96.29886838058346">♉</text><line stroke="#BBBBBB" stroke-width="0.5" x1="80.64008770049367" x2="127.31240946634608" y1="122.7847950204247" y2="160.49015778203645" /><text dominant-baseline="central" fill="#555555" font-family="&quot;Symbola&quot;, &quot;Noto Sans Symbols&quot;, &quot;Apple Symbols&quot;, &quot;Segoe UI Symbol&quot;, serif" font-size="20px" text-anchor="middle" x="69.668358802798" y="197.76822869868977">♊</text><line stroke="#BBBBBB" stroke-width="0.5" x1="21.421140886913292" x2="80.69323857054877" y1="256.20708670057445" y2="265.52472782811185" /><text dominant-baseline="central" fill="#555555" font-family="&quot;Symbola&quot;, &quot;Noto Sans Symbols&quot;, &quot;Apple Symbols&quot;, &quot;Segoe UI Symbol&quot;, serif" font-size="20px" text-anchor="middle" x="49.41106177720556" y="326.63050957778535">♋</text><line stroke="#BBBBBB" stroke-width="0.5" x1="36.84717440106806" x2="92.83713729445785" y1="401.3636541335114" y2="379.7969192114877" /><text dominant-baseline="central" fill="#555555" font-family="&quot;Symbola&quot;, &quot;Noto Sans Symbols&quot;, &quot;Apple Symbols&quot;, &quot;Segoe UI Symbol&quot;, serif" font-size="20px" text-anchor="middle" x="96.29886838058343" y="448.35716692148424">♌</text><line stroke="#BBBBBB" stroke-width="0.5" x1="122.78479502042478" x2="160.49015778203653" y1="519.3599122995064" y2="472.687590533654" /><text dominant-baseline="central" fill="#555555" font-family="&quot;Symbola&quot;, &quot;Noto Sans Symbols&quot;, &quot;Apple Symbols&quot;, &quot;Segoe UI Symbol&quot;, serif" font-size="20px" text-anchor="middle" x="197.76822869868977" y="530.331641197202">♍</text><line stroke="#BBBBBB" stroke-width="0.5" x1="256.20708670057434" x2="265.52472782811174" y1="578.5788591130867" y2="519.3067614294512" /><text dominant-baseline="central" fill="#555555" font-family="&quot;Symbola&quot;, &quot;Noto Sans Symbols&quot;, &quot;Apple Symbols&quot;, &quot;Segoe UI Symbol&quot;, serif" font-size="20px" text-anchor="middle" x="326.63050957778546" y="550.5889382227945">♎</text><line stroke="#BBBBBB" stroke-width="0.5" x1="401.3636541335114" x2="379.79691921148765" y1="563.1528255989319" y2="507.1628627055421" /><text dominant-baseline="central" fill="#555555" font-family="&quot;Symbola&quot;, &quot;Noto Sans Symbols&quot;, &quot;Apple Symbols&quot;, &quot;Segoe UI Symbol&quot;, serif" font-size="20px" text-anchor="middle" x="448.3571669214841" y="503.7011316194166">♏</text><line stroke="#BBBBBB" stroke-width="0.5" x1="519.3599122995064" x2="472.687590533654" y1="477.2152049795752" y2="439.5098422179635" /><text dominant-baseline="central" fill="#555555" font-family="&quot;Symbola&quot;, &quot;Noto Sans Symbols&quot;, &quot;Apple Symbols&quot;, &quot;Segoe UI Symbol&quot;, serif" font-size="20px" text-anchor="middle" x="530.331641197202" y="402.23177130131023">♐</text><line stroke="#BBBBBB" stroke-width="0.5" x1="578.5788591130867" x2="519.3067614294512" y1="343.79291329942566" y2="334.4752721718883" /><text dominant-baseline="central" fill="#555555" font-family="&quot;Symbola&quot;, &quot;Noto Sans Symbols&quot;, &quot;Apple Symbols&quot;, &quot;Segoe UI Symbol&quot;, serif" font-size="20px" text-anchor="middle" x="550.5889382227945" y="273.36949042221454">♑</text><line stroke="#BBBBBB" stroke-width="0.5" x1="563.1528255989319" x2="507.1628627055421" y1="198.6363458664886" y2="220.2030807885123" /><text dominant-baseline="central" fill="#555555" font-family="&quot;Symbola&quot;, &quot;Noto Sans Symbols&quot;, &quot;Apple Symbols&quot;, &quot;Segoe UI Symbol&quot;, serif" font-size="20px" text-anchor="middle" x="503.70113161941657" y="151.64283307851582">♒</text><line stroke="#BBBBBB" stroke-width="0.5" x1="477.2152049795753" x2="439.5098422179635" y1="80.64008770049364" y2="127.31240946634605" /><text dominant-baseline="central" fill="#555555" font-family="&quot;Symbola&quot;, &quot;Noto Sans Symbols&quot;, &quot;Apple Symbols&quot;, &quot;Segoe UI Symbol&quot;, serif" font-size="20px" text-anchor="middle" x="402.23177130131023" y="69.66835880279797">♓</text><path d="M 78.0,300.0 A 222.0,222.0 0 0,0 87.75023734645137,365.06948788420175 L 196.74335870908448,331.6554265382603 A 108.0,108.0 0 0,1 192.0,300.0 Z" fill="#F5F5F5" stroke="none" /><path d="M 87.75023734645137,365.06948788420175 A 222.0,222.0 0 0,0 120.3285442740642,430.39236172921744 L 212.59226478197718,363.434121922322 A 108.0,108.0 0 0,1 196.74335870908448,331.6554265382603 Z" fill="#FFFFFF" stroke="none" /><path d="M 120.3285442740642,430.39236172921744 A 222.0,222.0 0 0,0 190.40185255488205,493.0602136034201 L 246.6819823239967,393.92118499625843 A 108.0,108.0 0 0,1 212.59226478197718,363.434121922322 Z" fill="#F5F5F5" stroke="none" /><path d="M 190.40185255488205,493.0602136034201 A 222.0,222.0 0 0,0 320.2528521803602,521.0742453986002 L 309.85273889855364,407.5496328966163 A 108.0,108.0 0 0,1 246.6819823239967,393.92118499625843 Z" fill="#FFFFFF" stroke="none" /><path d="M 320.2528521803602,521.0742453986002 A 222.0,222.0 0 0,0 470.93825075758093,441.64785359453344 L 383.15914901720157,368.9097666135568 A 108.0,108.0 0 0,1 309.85273889855364,407.5496328966163 Z" fill="#F5F5F5" stroke="none" /><path d="M 470.93825075758093,441.64785359453344 A 222.0,222.0 0 0,0 522.0,300.0 L 408.0,300.0 A 108.0,108.0 0 0,1 383.15914901720157,368.9097666135568 Z" fill="#FFFFFF" stroke="none" /><path d="M 522.0,300.0 A 222.0,222.0 0 0,0 512.2497626535485,234.93051211579777 L 403.25664129091547,268.34457346173946 A 108.0,108.0 0 0,1 408.0,300.0 Z" fill="#F5F5F5" stroke="none" /><path d="M 512.2497626535485,234.93051211579777 A 222.0,222.0 0 0,0 479.67145572593574,169.6076382707825 L 387.4077352180228,236.56587807767798 A 108.0,108.0 0 0,1 403.25664129091547,268.34457346173946 Z" fill="#FFFFFF" stroke="none" /><path d="M 479.67145572593574,169.6076382707825 A 222.0,222.0 0 0,0 409.598147445118,106.93978639657993 L 353.31801767600336,206.0788150037416 A 108.0,108.0 0 0,1 387.4077352180228,236.56587807767798 Z" fill="#F5F5F5" stroke="none" /><path d="M 409.598147445118,106.93978639657993 A 222.0,222.0 0 0,0 279.7471478196396,78.92575460139986 L 290.1472611014463,192.4503671033837 A 108.0,108.0 0 0,1 353.31801767600336,206.0788150037416 Z" fill="#FFFFFF" stroke="none" /><path d="M 279.74714781963985,78.92575460139983 A 222.0,222.0 0 0,0 129.06174924241915,158.35214640546647 L 216.8408509827985,231.09023338644315 A 108.0,108.0 0 0,1 290.1472611014464,192.4503671033837 Z" fill="#F5F5F5" stroke="none" /><path d="M 129.06174924241915,158.35214640546647 A 222.0,222.0 0 0,0 78.0,300.0 L 192.0,300.0 A 108.0,108.0 0 0,1 216.8408509827985,231.09023338644315 Z" fill="#FFFFFF" stroke="none" /><line stroke="#CCCCCC" stroke-dasharray="1.0" stroke-width="0.8" x1="78.0" x2="192.0" y1="300.0" y2="300.0" /><text dominant-baseline="central" fill="#AAAAAA" font-family="&quot;Arial&quot;, &quot;Helvetica&quot;, sans-serif" font-size="11px" text-anchor="middle" x="181.3249137937493" y="317.7826857909306">1</text><line stroke="#CCCCCC" stroke-dasharray="1.0" stroke-width="0.8" x1="87.75023734645137" x2="196.74335870908448" y1="365.06948788420175" y2="331.6554265382603" /><text dominant-baseline="central" fill="#AAAAAA" font-family="&quot;Arial&quot;, &quot;Helvetica&quot;, sans-serif" font-size="11px" text-anchor="middle" x="192.61412898725837" y="353.5562760732561">2</text><line stroke="#CCCCCC" stroke-dasharray="1.0" stroke-width="0.8" x1="120.3285442740642" x2="212.59226478197718" y1="430.39236172921744" y2="363.434121922322" /><text dominant-baseline="central" fill="#AAAAAA" font-family="&quot;Arial&quot;, &quot;Helvetica&quot;, sans-serif" font-size="11px" text-anchor="middle" x="220.0054042287071" y="389.4475524952329">3</text><line stroke="#CCCCCC" stroke-dasharray="1.0" stroke-width="0.8" x1="190.40185255488205" x2="246.6819823239967" y1="493.0602136034201" y2="393.92118499625843" /><text dominant-baseline="central" fill="#AAAAAA" font-family="&quot;Arial&quot;, &quot;Helvetica&quot;, sans-serif" font-size="11px" text-anchor="middle" x="274.69345317605485" y="417.30123054702995">4</text><line stroke="#CCCCCC" stroke-dasharray="1.0" stroke-width="0.8" x1="320.2528521803602" x2="309.85273889855364" y1="521.0742453986002" y2="407.5496328966163" /><text dominant-baseline="central" fill="#AAAAAA" font-family="&quot;Arial&quot;, &quot;Helvetica&quot;, sans-serif" font-size="11px" text-anchor="middle" x="355.9548168692574" y="406.15582164501325">5</text><line stroke="#CCCCCC" stroke-dasharray="1.0" stroke-width="0.8" x1="470.93825075758093" x2="383.15914901720157" y1="441.64785359453344" y2="368.9097666135568" /><text dominant-baseline="central" fill="#AAAAAA" font-family="&quot;Arial&quot;, &quot;Helvetica&quot;, sans-serif" font-size="11px" text-anchor="middle" x="412.88907505960634" y="340.69467695149524">6</text><line stroke="#CCCCCC" stroke-dasharray="1.0" stroke-width="0.8" x1="522.0" x2="408.0" y1="300.0" y2="300.0" /><text dominant-baseline="central" fill="#AAAAAA" font-family="&quot;Arial&quot;, &quot;Helvetica&quot;, sans-serif" font-size="11px" text-anchor="middle" x="418.6750862062507" y="282.2173142090693">7</text><line stroke="#CCCCCC" stroke-dasharray="1.0" stroke-width="0.8" x1="512.2497626535485" x2="403.25664129091547" y1="234.93051211579777" y2="268.34457346173946" /><text dominant-baseline="central" fill="#AAAAAA" font-family="&quot;Arial&quot;, &quot;Helvetica&quot;, sans-serif" font-size="11px" text-anchor="middle" x="407.3858710127416" y="246.44372392674381">8</text><line stroke="#CCCCCC" stroke-dasharray="1.0" stroke-width="0.8" x1="479.67145572593574" x2="387.4077352180228" y1="169.6076382707825" y2="236.56587807767798" /><text dominant-baseline="central" fill="#AAAAAA" font-family="&quot;Arial&quot;, &quot;Helvetica&quot;, sans-serif" font-size="11px" text-anchor="middle" x="379.99459577129295" y="210.55244750476712">9</text><line stroke="#CCCCCC" stroke-dasharray="1.0" stroke-width="0.8" x1="409.598147445118" x2="353.31801767600336" y1="106.93978639657993" y2="206.0788150037416" /><text dominant-baseline="central" fill="#AAAAAA" font-family="&quot;Arial&quot;, &quot;Helvetica&quot;, sans-serif" font-size="11px" text-anchor="middle" x="325.3065468239451" y="182.69876945297005">10</text><line stroke="#CCCCCC" stroke-dasharray="1.0" stroke-width="0.8" x1="279.74714781963985" x2="290.1472611014464" y1="78.92575460139983" y2="192.4503671033837" /><text dominant-baseline="central" fill="#AAAAAA" font-family="&quot;Arial&quot;, &quot;Helvetica&quot;, sans-serif" font-size="11px" text-anchor="middle" x="244.04518313074254" y="193.84417835498675">11</text><line stroke="#CCCCCC" stroke-dasharray="1.0" stroke-width="0.8" x1="129.06174924241915" x2="216.8408509827985" y1="158.35214640546647" y2="231.09023338644315" /><text dominant-baseline="central" fill="#AAAAAA" font-family="&quot;Arial&quot;, &quot;Helvetica&quot;, sans-serif" font-size="11px" text-anchor="middle" x="187.11092494039363" y="259.30532304850476">12</text><circle cx="300" cy="300" fill="#FFFFFF" r="108.0" stroke="#BBBBBB" /><line opacity="0.6" stroke="#3498DB" stroke-dasharray="1,0" stroke-width="2.0" x1="284.8944917398378" x2="398.2498893546653" y1="193.06158959381258" y2="344.8437202046845" /><line opacity="0.6" stroke="#27AE60" stroke-dasharray="6,2" stroke-width="1.5" x1="328.74376761736255" x2="222.58463312705223" y1="195.89526512612858" y2="224.69488083850538" /><line opacity="0.6" stroke="#27AE60" stroke-dasharray="6,2" stroke-width="1.5" x1="328.74376761736255" x2="402.7293441263745" y1="195.89526512612858" y2="266.6731061248588" /><line opacity="0.6" stroke="#3498DB" stroke-dasharray="1,0" stroke-width="2.0" x1="328.74376761736255" x2="378.23384509680557" y1="195.89526512612858" y2="374.45445239452795" /><line opacity="0.6" stroke="#F39C12" stroke-dasharray="4,2" stroke-width="1.5" x1="398.2498893546653" x2="353.31801767600336" y1="344.8437202046845" y2="206.0788150037416" /><line opacity="0.6" stroke="#F39C12" stroke-dasharray="4,2" stroke-width="1.5" x1="398.2498893546653" x2="246.6819823239967" y1="344.8437202046845" y2="393.92118499625843" /><line opacity="0.6" stroke="#F39C12" stroke-dasharray="4,2" stroke-width="1.5" x1="371.49488910478533" x2="222.58463312705223" y1="219.0526045391549" y2="224.69488083850538" /><line opacity="0.6" stroke="#E74C3C" stroke-dasharray="1,0" stroke-width="2.0" x1="371.49488910478533" x2="234.03724935293397" y1="219.0526045391549" y2="385.5155864569319" /><line opacity="0.6" stroke="#27AE60" stroke-dasharray="6,2" stroke-width="1.5" x1="371.49488910478533" x2="264.7640337546011" y1="219.0526045391549" y2="197.90971308320704" /><line opacity="0.6" stroke="#F39C12" stroke-dasharray="4,2" stroke-width="1.5" x1="371.49488910478533" x2="378.23384509680557" y1="219.0526045391549" y2="374.45445239452795" /><line opacity="0.6" stroke="#27AE60" stroke-dasharray="6,2" stroke-width="1.5" x1="308.9341417907494" x2="398.8174681143198" y1="192.37016626203132" y2="256.4212437594258" /><line opacity="0.6" stroke="#34495E" stroke-dasharray="1,0" stroke-width="2.0" x1="308.9341417907494" x2="310.9281826444492" y1="192.37016626203132" y2="192.55431686619718" /><line opacity="0.6" stroke="#3498DB" stroke-dasharray="1,0" stroke-width="2.0" x1="308.9341417907494" x2="201.18253188568016" y1="192.37016626203132" y2="343.5787562405742" /><line opacity="0.6" stroke="#F39C12" stroke-dasharray="4,2" stroke-width="1.5" x1="308.9341417907494" x2="192.0" y1="192.37016626203132" y2="300.0" /><line opacity="0.6" stroke="#F39C12" stroke-dasharray="4,2" stroke-width="1.5" x1="308.9341417907494" x2="408.0" y1="192.37016626203132" y2="300.0" /><line opacity="0.6" stroke="#F39C12" stroke-dasharray="4,2" stroke-width="1.5" x1="247.74318405342558" x2="398.8174681143198" y1="205.48425958007923" y2="256.4212437594258" /><line opacity="0.6" stroke="#34495E" stroke-dasharray="1,0" stroke-width="2.0" x1="247.74318405342558" x2="251.62454204186383" y1="205.48425958007923" y2="203.44009596452264" /><line opacity="0.6" stroke="#3498DB" stroke-dasharray="1,0" stroke-width="2.0" x1="247.74318405342558" x2="234.03724935293397" y1="205.48425958007923" y2="385.5155864569319" /><line opacity="0.6" stroke="#F39C12" stroke-dasharray="4,2" stroke-width="1.5" x1="247.74318405342558" x2="201.18253188568016" y1="205.48425958007923" y2="343.5787562405742" /><line opacity="0.6" stroke="#27AE60" stroke-dasharray="6,2" stroke-width="1.5" x1="247.74318405342558" x2="192.0" y1="205.48425958007923" y2="300.0" /><line opacity="0.6" stroke="#27AE60" stroke-dasharray="6,2" stroke-width="1.5" x1="247.74318405342558" x2="353.31801767600336" y1="205.48425958007923" y2="206.0788150037416" /><line opacity="0.6" stroke="#3498DB" stroke-dasharray="1,0" stroke-width="2.0" x1="247.74318405342558" x2="408.0" y1="205.48425958007923" y2="300.0" /><line opacity="0.6" stroke="#3498DB" stroke-dasharray="1,0" stroke-width="2.0" x1="247.74318405342558" x2="246.6819823239967" y1="205.48425958007923" y2="393.92118499625843" /><line opacity="0.6" stroke="#3498DB" stroke-dasharray="1,0" stroke-width="2.0" x1="222.58463312705223" x2="402.7293441263745" y1="224.69488083850538" y2="266.6731061248588" /><line opacity="0.6" stroke="#F39C12" stroke-dasharray="4,2" stroke-width="1.5" x1="222.58463312705223" x2="234.03724935293397" y1="224.69488083850538" y2="385.5155864569319" /><line opacity="0.6" stroke="#E74C3C" stroke-dasharray="1,0" stroke-width="2.0" x1="222.58463312705223" x2="378.23384509680557" y1="224.69488083850538" y2="374.45445239452795" /><line opacity="0.6" stroke="#F39C12" stroke-dasharray="4,2" stroke-width="1.5" x1="398.8174681143198" x2="251.62454204186383" y1="256.4212437594258" y2="203.44009596452264" /><line opacity="0.6" stroke="#34495E" stroke-dasharray="1,0" stroke-width="2.0" x1="398.8174681143198" x2="402.7293441263745" y1="256.4212437594258" y2="266.6731061248588" /><line opacity="0.6" stroke="#27AE60" stroke-dasharray="6,2" stroke-width="1.5" x1="398.8174681143198" x2="310.9281826444492" y1="256.4212437594258" y2="192.55431686619718" /><line opacity="0.6" stroke="#F39C12" stroke-dasharray="4,2" stroke-width="1.5" x1="398.8174681143198" x2="264.7640337546011" y1="256.4212437594258" y2="197.90971308320704" /><line opacity="0.6" stroke="#3498DB" stroke-dasharray="1,0" stroke-width="2.0" x1="251.62454204186383" x2="234.03724935293397" y1="203.44009596452264" y2="385.5155864569319" /><line opacity="0.6" stroke="#34495E" stroke-dasharray="1,0" stroke-width="2.0" x1="251.62454204186383" x2="264.7640337546011" y1="203.44009596452264" y2="197.90971308320704" /><line opacity="0.6" stroke="#F39C12" stroke-dasharray="4,2" stroke-width="1.5" x1="251.62454204186383" x2="201.18253188568016" y1="203.44009596452264" y2="343.5787562405742" /><line opacity="0.6" stroke="#27AE60" stroke-dasharray="6,2" stroke-width="1.5" x1="251.62454204186383" x2="192.0" y1="203.44009596452264" y2="300.0" /><line opacity="0.6" stroke="#27AE60" stroke-dasharray="6,2" stroke-width="1.5" x1="251.62454204186383" x2="353.31801767600336" y1="203.44009596452264" y2="206.0788150037416" /><line opacity="0.6" stroke="#3498DB" stroke-dasharray="1,0" stroke-width="2.0" x1="251.62454204186383" x2="408.0" y1="203.44009596452264" y2="300.0" /><line opacity="0.6" stroke="#3498DB" stroke-dasharray="1,0" stroke-width="2.0" x1="251.62454204186383" x2="246.6819823239967" y1="203.44009596452264" y2="393.92118499625843" /><line opacity="0.6" stroke="#F39C12" stroke-dasharray="4,2" stroke-width="1.5" x1="402.7293441263745" x2="264.7640337546011" y1="266.6731061248588" y2="197.90971308320704" /><line opacity="0.6" stroke="#E74C3C" stroke-dasharray="1,0" stroke-width="2.0" x1="402.7293441263745" x2="201.18253188568016" y1="266.6731061248588" y2="343.5787562405742" /><line opacity="0.6" stroke="#27AE60" stroke-dasharray="6,2" stroke-width="1.5" x1="402.7293441263745" x2="378.23384509680557" y1="266.6731061248588" y2="374.45445239452795" /><line opacity="0.6" stroke="#3498DB" stroke-dasharray="1,0" stroke-width="2.0" x1="234.03724935293397" x2="264.7640337546011" y1="385.5155864569319" y2="197.90971308320704" /><line opacity="0.6" stroke="#3498DB" stroke-dasharray="1,0" stroke-width="2.0" x1="234.03724935293397" x2="408.0" y1="385.5155864569319" y2="300.0" /><line opacity="0.6" stroke="#F39C12" stroke-dasharray="4,2" stroke-width="1.5" x1="234.03724935293397" x2="378.23384509680557" y1="385.5155864569319" y2="374.45445239452795" /><line opacity="0.6" stroke="#3498DB" stroke-dasharray="1,0" stroke-width="2.0" x1="310.9281826444492" x2="201.18253188568016" y1="192.55431686619718" y2="343.5787562405742" /><line opacity="0.6" stroke="#F39C12" stroke-dasharray="4,2" stroke-width="1.5" x1="310.9281826444492" x2="192.0" y1="192.55431686619718" y2="300.0" /><line opacity="0.6" stroke="#F39C12" stroke-dasharray="4,2" stroke-width="1.5" x1="310.9281826444492" x2="408.0" y1="192.55431686619718" y2="300.0" /><line opacity="0.6" stroke="#3498DB" stroke-dasharray="1,0" stroke-width="2.0" x1="310.9281826444492" x2="378.23384509680557" y1="192.55431686619718" y2="374.45445239452795" /><line opacity="0.6" stroke="#F39C12" stroke-dasharray="4,2" stroke-width="1.5" x1="264.7640337546011" x2="201.18253188568016" y1="197.90971308320704" y2="343.5787562405742" /><line opacity="0.6" stroke="#3498DB" stroke-dasharray="1,0" stroke-width="2.0" x1="201.18253188568016" x2="378.23384509680557" y1="343.5787562405742" y2="374.45445239452795" /><line opacity="0.6" stroke="#3498DB" stroke-dasharray="1,0" stroke-width="2.0" x1="192.0" x2="353.31801767600336" y1="300.0" y2="206.0788150037416" /><line opacity="0.6" stroke="#27AE60" stroke-dasharray="6,2" stroke-width="1.5" x1="192.0" x2="246.6819823239967" y1="300.0" y2="393.92118499625843" /><line opacity="0.6" stroke="#27AE60" stroke-dasharray="6,2" stroke-width="1.5" x1="353.31801767600336" x2="408.0" y1="206.0788150037416" y2="300.0" /><line opacity="0.6" stroke="#3498DB" stroke-dasharray="1,0" stroke-width="2.0" x1="408.0" x2="246.6819823239967" y1="300.0" y2="393.92118499625843" /><g transform="translate(554.0, 554.0)"><circle cx="0" cy="0" fill="#2C3E50" opacity="0.95" r="28" stroke="none" /><circle cx="0" cy="0" fill="#F8F9FA" opacity="0.95" r="28" stroke="none" /><path d="M 0 -28 A 28 28 0 0 0 0 28 A 4.48594708763466 28 0 0 1 0 -28 Z" fill="#2C3E50" opacity="0.95" stroke="none" /><circle cx="0" cy="0" fill="none" opacity="0.95" r="28" stroke="#2C3E50" stroke-width="2" /></g><text dominant-baseline="central" fill="#222222" font-family="&quot;Symbola&quot;, &quot;Noto Sans Symbols&quot;, &quot;Apple Symbols&quot;, &quot;Segoe UI Symbol&quot;, serif" font-size="32px" text-anchor="middle" x="273.14576309304493" y="109.88727038900015">♀</text><text dominant-baseline="central" fill="#444444" font-family="&quot;Arial&quot;, &quot;Helvetica&quot;, sans-serif" font-size="10px" text-anchor="middle" x="276.7263280139723" y="135.23563433713346">16°</text><text dominant-baseline="central" fill="#444444" font-family="&quot;Symbola&quot;, &quot;Noto Sans Symbols&quot;, &quot;Apple Symbols&quot;, &quot;Segoe UI Symbol&quot;, serif" font-size="10px" text-anchor="middle" x="278.516610474436" y="147.90981631120013">♈</text><text dominant-baseline="central" fill="#444444" font-family="&quot;Arial&quot;, &quot;Helvetica&quot;, sans-serif" font-size="10px" text-anchor="middle" x="280.3068929348996" y="160.58399828526677">58'</text><text dominant-baseline="central" fill="#222222" font-family="&quot;Symbola&quot;, &quot;Noto Sans Symbols&quot;, &quot;Apple Symbols&quot;, &quot;Segoe UI Symbol&quot;, serif" font-size="32px" text-anchor="middle" x="351.10003131975566" y="114.92491577978416">☉</text><text dominant-baseline="central" fill="#444444" font-family="&quot;Arial&quot;, &quot;Helvetica&quot;, sans-serif" font-size="10px" text-anchor="middle" x="344.2866938104549" y="139.60159367581292">23°</text><text dominant-baseline="central" fill="#444444" font-family="&quot;Symbola&quot;, &quot;Noto Sans Symbols&quot;, &quot;Apple Symbols&quot;, &quot;Segoe UI Symbol&quot;, serif" font-size="10px" text-anchor="middle" x="340.8800250558045" y="151.93993262382733">♓</text><text dominant-baseline="central" fill="#444444" font-family="&quot;Arial&quot;, &quot;Helvetica&quot;, sans-serif" font-size="10px" text-anchor="middle" x="337.4733563011541" y="164.27827157184169">29'</text><text dominant-baseline="central" fill="#222222" font-family="&quot;Symbola&quot;, &quot;Noto Sans Symbols&quot;, &quot;Apple Symbols&quot;, &quot;Segoe UI Symbol&quot;, serif" font-size="32px" text-anchor="middle" x="474.6664699638494" y="379.7221692527724">☽</text><text dominant-baseline="central" fill="#444444" font-family="&quot;Arial&quot;, &quot;Helvetica&quot;, sans-serif" font-size="10px" text-anchor="middle" x="451.37760730200284" y="369.09254668573607">14°</text><text dominant-baseline="central" fill="#444444" font-family="&quot;Symbola&quot;, &quot;Noto Sans Symbols&quot;, &quot;Apple Symbols&quot;, &quot;Segoe UI Symbol&quot;, serif" font-size="10px" text-anchor="middle" x="439.7331759710795" y="363.7777354022179">♐</text><text dominant-baseline="central" fill="#444444" font-family="&quot;Arial&quot;, &quot;Helvetica&quot;, sans-serif" font-size="10px" text-anchor="middle" x="428.0887446401563" y="358.4629241186998">24'</text><text dominant-baseline="central" fill="#222222" font-family="&quot;Symbola&quot;, &quot;Noto Sans Symbols&quot;, &quot;Apple Symbols&quot;, &quot;Segoe UI Symbol&quot;, serif" font-size="32px" text-anchor="middle" x="427.10202507517397" y="156.09351918071985">♃</text><text dominant-baseline="central" fill="#444444" font-family="&quot;Arial&quot;, &quot;Helvetica&quot;, sans-serif" font-size="10px" text-anchor="middle" x="410.1550883984841" y="175.28104995662386">27°</text><text dominant-baseline="central" fill="#444444" font-family="&quot;Symbola&quot;, &quot;Noto Sans Symbols&quot;, &quot;Apple Symbols&quot;, &quot;Segoe UI Symbol&quot;, serif" font-size="10px" text-anchor="middle" x="401.68162006013915" y="184.8748153445759">♒</text><text dominant-baseline="central" fill="#444444" font-family="&quot;Arial&quot;, &quot;Helvetica&quot;, sans-serif" font-size="10px" text-anchor="middle" x="393.20815172179425" y="194.46858073252787">28'</text><line opacity="0.6" stroke="#999999" stroke-dasharray="2,2" stroke-width="0.5" x1="315.88291873911" x2="307.62603526696176" y1="108.65807335472232" y2="108.15150877291984" /><text dominant-baseline="central" fill="#222222" font-family="&quot;Symbola&quot;, &quot;Noto Sans Symbols&quot;, &quot;Apple Symbols&quot;, &quot;Segoe UI Symbol&quot;, serif" font-size="32px" text-anchor="middle" x="307.62603526696176" y="108.15150877291984">♄</text><text dominant-baseline="central" fill="#444444" font-family="&quot;Arial&quot;, &quot;Helvetica&quot;, sans-serif" font-size="10px" text-anchor="middle" x="306.60923056470017" y="133.7313076031972">4°</text><text dominant-baseline="central" fill="#444444" font-family="&quot;Symbola&quot;, &quot;Noto Sans Symbols&quot;, &quot;Apple Symbols&quot;, &quot;Segoe UI Symbol&quot;, serif" font-size="10px" text-anchor="middle" x="306.1008282135694" y="146.52120701833587">♈</text><text dominant-baseline="central" fill="#444444" font-family="&quot;Arial&quot;, &quot;Helvetica&quot;, sans-serif" font-size="10px" text-anchor="middle" x="305.59242586243863" y="159.31110643347455">11'</text><line opacity="0.6" stroke="#999999" stroke-dasharray="2,2" stroke-width="0.5" x1="207.09899387275658" x2="201.76241640553047" y1="131.97201703125197" y2="135.03522445831166" /><text dominant-baseline="central" fill="#222222" font-family="&quot;Symbola&quot;, &quot;Noto Sans Symbols&quot;, &quot;Apple Symbols&quot;, &quot;Segoe UI Symbol&quot;, serif" font-size="32px" text-anchor="middle" x="201.76241640553047" y="135.03522445831166">♆</text><text dominant-baseline="central" fill="#444444" font-family="&quot;Arial&quot;, &quot;Helvetica&quot;, sans-serif" font-size="10px" text-anchor="middle" x="214.86076088479308" y="157.0305278638701">7°</text><text dominant-baseline="central" fill="#444444" font-family="&quot;Symbola&quot;, &quot;Noto Sans Symbols&quot;, &quot;Apple Symbols&quot;, &quot;Segoe UI Symbol&quot;, serif" font-size="10px" text-anchor="middle" x="221.4099331244244" y="168.02817956664933">♉</text><text dominant-baseline="central" fill="#444444" font-family="&quot;Arial&quot;, &quot;Helvetica&quot;, sans-serif" font-size="10px" text-anchor="middle" x="227.9591053640557" y="179.02583126942852">52'</text><text dominant-baseline="central" fill="#222222" font-family="&quot;Symbola&quot;, &quot;Noto Sans Symbols&quot;, &quot;Apple Symbols&quot;, &quot;Segoe UI Symbol&quot;, serif" font-size="32px" text-anchor="middle" x="162.37268111475953" y="166.12423260178736">♇</text><text dominant-baseline="central" fill="#444444" font-family="&quot;Arial&quot;, &quot;Helvetica&quot;, sans-serif" font-size="10px" text-anchor="middle" x="180.72299029945825" y="183.97433492154903">24°</text><text dominant-baseline="central" fill="#444444" font-family="&quot;Symbola&quot;, &quot;Noto Sans Symbols&quot;, &quot;Apple Symbols&quot;, &quot;Segoe UI Symbol&quot;, serif" font-size="10px" text-anchor="middle" x="189.89814489180762" y="192.8993860814299">♉</text><text dominant-baseline="central" fill="#444444" font-family="&quot;Arial&quot;, &quot;Helvetica&quot;, sans-serif" font-size="10px" text-anchor="middle" x="199.07329948415696" y="201.8244372413107">43'</text><text dominant-baseline="central" fill="#E74C3C" font-family="&quot;Symbola&quot;, &quot;Noto Sans Symbols&quot;, &quot;Apple Symbols&quot;, &quot;Segoe UI Symbol&quot;, serif" font-size="32px" text-anchor="middle" x="475.5561552534583" y="222.2565992985665">☊</text><text dominant-baseline="central" fill="#444444" font-family="&quot;Arial&quot;, &quot;Helvetica&quot;, sans-serif" font-size="10px" text-anchor="middle" x="452.1486678863305" y="232.62238605875763">2°</text><text dominant-baseline="central" fill="#444444" font-family="&quot;Symbola&quot;, &quot;Noto Sans Symbols&quot;, &quot;Apple Symbols&quot;, &quot;Segoe UI Symbol&quot;, serif" font-size="10px" text-anchor="middle" x="440.44492420276663" y="237.8052794388532">♒</text><text dominant-baseline="central" fill="#444444" font-family="&quot;Arial&quot;, &quot;Helvetica&quot;, sans-serif" font-size="10px" text-anchor="middle" x="428.74118051920277" y="242.98817281894875">43'</text><line opacity="0.6" stroke="#999999" stroke-dasharray="2,2" stroke-width="0.5" x1="213.99918585220234" x2="219.544086647895" y1="128.33794838137356" y2="125.6702951110208" /><text dominant-baseline="central" fill="#222222" font-family="&quot;Symbola&quot;, &quot;Noto Sans Symbols&quot;, &quot;Apple Symbols&quot;, &quot;Segoe UI Symbol&quot;, serif" font-size="32px" text-anchor="middle" x="219.544086647895" y="125.6702951110208">⚷</text><text dominant-baseline="central" fill="#444444" font-family="&quot;Arial&quot;, &quot;Helvetica&quot;, sans-serif" font-size="10px" text-anchor="middle" x="230.271541761509" y="148.9142557628847">5°</text><text dominant-baseline="central" fill="#444444" font-family="&quot;Symbola&quot;, &quot;Noto Sans Symbols&quot;, &quot;Apple Symbols&quot;, &quot;Segoe UI Symbol&quot;, serif" font-size="10px" text-anchor="middle" x="235.635269318316" y="160.53623608881665">♉</text><text dominant-baseline="central" fill="#444444" font-family="&quot;Arial&quot;, &quot;Helvetica&quot;, sans-serif" font-size="10px" text-anchor="middle" x="240.998996875123" y="172.15821641474858">32'</text><text dominant-baseline="central" fill="#222222" font-family="&quot;Symbola&quot;, &quot;Noto Sans Symbols&quot;, &quot;Apple Symbols&quot;, &quot;Segoe UI Symbol&quot;, serif" font-size="32px" text-anchor="middle" x="482.72083847075845" y="241.03310090785678">♂</text><text dominant-baseline="central" fill="#444444" font-family="&quot;Arial&quot;, &quot;Helvetica&quot;, sans-serif" font-size="10px" text-anchor="middle" x="458.3580600079906" y="248.89535412014254">26°</text><text dominant-baseline="central" fill="#444444" font-family="&quot;Symbola&quot;, &quot;Noto Sans Symbols&quot;, &quot;Apple Symbols&quot;, &quot;Segoe UI Symbol&quot;, serif" font-size="10px" text-anchor="middle" x="446.1766707766068" y="252.82648072628544">♑</text><text dominant-baseline="central" fill="#444444" font-family="&quot;Arial&quot;, &quot;Helvetica&quot;, sans-serif" font-size="10px" text-anchor="middle" x="433.99528154522284" y="256.7576073324283">54'</text><text dominant-baseline="central" fill="#E74C3C" font-family="&quot;Symbola&quot;, &quot;Noto Sans Symbols&quot;, &quot;Apple Symbols&quot;, &quot;Segoe UI Symbol&quot;, serif" font-size="32px" text-anchor="middle" x="182.73288773854927" y="452.02770925676776">♅</text><text dominant-baseline="central" fill="#444444" font-family="&quot;Arial&quot;, &quot;Helvetica&quot;, sans-serif" font-size="10px" text-anchor="middle" x="198.36850270674267" y="431.757348022532">1°</text><text dominant-baseline="central" fill="#444444" font-family="&quot;Symbola&quot;, &quot;Noto Sans Symbols&quot;, &quot;Apple Symbols&quot;, &quot;Segoe UI Symbol&quot;, serif" font-size="10px" text-anchor="middle" x="206.18631019083944" y="421.6221674054142">♍</text><text dominant-baseline="central" fill="#444444" font-family="&quot;Arial&quot;, &quot;Helvetica&quot;, sans-serif" font-size="10px" text-anchor="middle" x="214.00411767493614" y="411.48698678829635">17'</text><line opacity="0.6" stroke="#999999" stroke-dasharray="2,2" stroke-width="0.5" x1="319.4278802567986" x2="327.6378870160287" y1="108.98545220657277" y2="109.9996126285811" /><text dominant-baseline="central" fill="#222222" font-family="&quot;Symbola&quot;, &quot;Noto Sans Symbols&quot;, &quot;Apple Symbols&quot;, &quot;Segoe UI Symbol&quot;, serif" font-size="32px" text-anchor="middle" x="327.6378870160287" y="109.9996126285811">☿</text><text dominant-baseline="central" fill="#444444" font-family="&quot;Arial&quot;, &quot;Helvetica&quot;, sans-serif" font-size="10px" text-anchor="middle" x="323.95283541389153" y="135.33299761143695">3°</text><text dominant-baseline="central" fill="#444444" font-family="&quot;Symbola&quot;, &quot;Noto Sans Symbols&quot;, &quot;Apple Symbols&quot;, &quot;Segoe UI Symbol&quot;, serif" font-size="10px" text-anchor="middle" x="322.1103096128229" y="147.9996901028649">♈</text><text dominant-baseline="central" fill="#444444" font-family="&quot;Arial&quot;, &quot;Helvetica&quot;, sans-serif" font-size="10px" text-anchor="middle" x="320.2677838117544" y="160.6663825942928">07'</text><text dominant-baseline="central" fill="#222222" font-family="&quot;Symbola&quot;, &quot;Noto Sans Symbols&quot;, &quot;Apple Symbols&quot;, &quot;Segoe UI Symbol&quot;, serif" font-size="32px" text-anchor="middle" x="237.35828223040193" y="118.50615659236809">⚸</text><text dominant-baseline="central" fill="#444444" font-family="&quot;Arial&quot;, &quot;Helvetica&quot;, sans-serif" font-size="10px" text-anchor="middle" x="245.7105112663483" y="142.70533571338567">27°</text><text dominant-baseline="central" fill="#444444" font-family="&quot;Symbola&quot;, &quot;Noto Sans Symbols&quot;, &quot;Apple Symbols&quot;, &quot;Segoe UI Symbol&quot;, serif" font-size="10px" text-anchor="middle" x="249.88662578432152" y="154.80492527389447">♈</text><text dominant-baseline="central" fill="#444444" font-family="&quot;Arial&quot;, &quot;Helvetica&quot;, sans-serif" font-size="10px" text-anchor="middle" x="254.06274030229474" y="166.90451483440324">58'</text><text dominant-baseline="central" fill="#222222" font-family="&quot;Symbola&quot;, &quot;Noto Sans Symbols&quot;, &quot;Apple Symbols&quot;, &quot;Segoe UI Symbol&quot;, serif" font-size="32px" text-anchor="middle" x="124.32450113009807" y="377.47334442768744">☋</text><text dominant-baseline="central" fill="#444444" font-family="&quot;Arial&quot;, &quot;Helvetica&quot;, sans-serif" font-size="10px" text-anchor="middle" x="147.74790097941832" y="367.14356517066244">2°</text><text dominant-baseline="central" fill="#444444" font-family="&quot;Symbola&quot;, &quot;Noto Sans Symbols&quot;, &quot;Apple Symbols&quot;, &quot;Segoe UI Symbol&quot;, serif" font-size="10px" text-anchor="middle" x="159.45960090407846" y="361.97867554215">♌</text><text dominant-baseline="central" fill="#444444" font-family="&quot;Arial&quot;, &quot;Helvetica&quot;, sans-serif" font-size="10px" text-anchor="middle" x="171.17130082873857" y="356.81378591363745">43'</text><text dominant-baseline="central" fill="#222222" font-family="&quot;Symbola&quot;, &quot;Noto Sans Symbols&quot;, &quot;Apple Symbols&quot;, &quot;Segoe UI Symbol&quot;, serif" font-size="32px" text-anchor="middle" x="439.0823912832099" y="432.36347092360523">🜊</text><text dominant-baseline="central" fill="#444444" font-family="&quot;Arial&quot;, &quot;Helvetica&quot;, sans-serif" font-size="10px" text-anchor="middle" x="420.5380724454486" y="414.71500813379123">25°</text><text dominant-baseline="central" fill="#444444" font-family="&quot;Symbola&quot;, &quot;Noto Sans Symbols&quot;, &quot;Apple Symbols&quot;, &quot;Segoe UI Symbol&quot;, serif" font-size="10px" text-anchor="middle" x="411.26591302656794" y="405.8907767388842">♏</text><text dominant-baseline="central" fill="#444444" font-family="&quot;Arial&quot;, &quot;Helvetica&quot;, sans-serif" font-size="10px" text-anchor="middle" x="401.99375360768727" y="397.06654534397717">21'</text><line stroke="#555555" stroke-width="2.5" x1="18.0" x2="192.0" y1="299.99999999999994" y2="300.0" /><text dominant-baseline="central" fill="#333333" font-family="&quot;Arial&quot;, &quot;Helvetica&quot;, sans-serif" font-size="12px" font-weight="bold" text-anchor="middle" x="68.0" y="292.0">Asc</text><line stroke="#555555" stroke-width="2.5" x1="439.21926837623096" x2="353.31801767600336" y1="54.76135028754749" y2="206.0788150037416" /><text dominant-baseline="central" fill="#333333" font-family="&quot;Arial&quot;, &quot;Helvetica&quot;, sans-serif" font-size="12px" font-weight="bold" text-anchor="middle" x="422.5350009336368" y="98.24338037840786">MC</text><line stroke="#CCCCCC" stroke-width="1.75" x1="582.0" x2="408.0" y1="300.0" y2="300.0" /><text dominant-baseline="central" fill="#333333" font-family="&quot;Arial&quot;, &quot;Helvetica&quot;, sans-serif" font-size="12px" font-weight="bold" text-anchor="middle" x="532.0" y="308.0">Dsc</text><line stroke="#CCCCCC" stroke-width="1.75" x1="160.7807316237691" x2="246.6819823239967" y1="545.2386497124526" y2="393.92118499625843" /><text dominant-baseline="central" fill="#333333" font-family="&quot;Arial&quot;, &quot;Helvetica&quot;, sans-serif" font-size="12px" font-weight="bold" text-anchor="middle" x="177.46499906636322" y="501.75661962159217">IC</text></svg>